<svg xmlns="http://www.w3.org/2000/svg" viewBox="0 0 420 320" role="img" aria-label="Auvergne-Rhône-Alpes">
  <title>Auvergne-Rhône-Alpes</title>
  <path d="M221.60 85.49 L222.67 81.03 L223.64 79.04 L223.88 76.58 L224.99 74.98 L225.43 72.61 L226.98 69.26 L226.88 66.24 L229.60 61.23 L229.87 57.26 L231.65 54.52 L231.63 51.99 L233.11 49.26 L238.20 49.67 L239.94 51.49 L242.07 52.53 L245.84 51.67 L248.05 49.79 L250.68 49.35 L252.79 49.91 L253.82 54.20 L256.84 55.97 L260.89 56.52 L261.55 58.24 L260.02 60.19 L263.18 61.35 L265.71 63.67 L265.55 66.68 L267.66 68.09 L269.43 68.10 L270.32 70.66 L272.48 69.78 L273.08 70.67 L271.73 75.02 L272.93 76.03 L276.43 76.12 L278.04 75.47 L279.84 72.92 L282.14 72.58 L283.64 69.16 L285.99 68.04 L288.60 71.11 L290.83 71.34 L290.85 74.23 L291.61 76.49 L294.61 75.68 L300.84 76.35 L302.96 75.58 L304.16 73.72 L305.22 74.00 L305.89 71.29 L307.63 71.27 L310.75 65.59 L314.15 62.96 L316.71 59.80 L319.24 60.60 L324.54 64.99 L320.95 70.81 L320.81 72.83 L319.57 73.88 L321.17 77.53 L319.51 78.98 L318.50 77.98 L314.42 78.93 L312.16 80.76 L310.37 81.18 L309.28 83.32 L311.39 84.43 L308.71 90.26 L310.88 89.06 L315.34 89.42 L315.82 88.19 L318.82 88.15 L321.35 89.36 L324.94 87.47 L325.74 85.33 L329.45 82.29 L332.52 81.32 L334.94 78.31 L334.73 77.06 L331.79 77.87 L329.58 74.71 L330.25 72.06 L332.49 67.03 L334.47 65.17 L337.50 64.77 L338.41 66.63 L340.86 67.97 L342.46 66.02 L346.67 64.51 L347.74 62.42 L349.98 61.03 L352.35 62.11 L355.53 61.30 L359.01 60.93 L365.52 60.74 L370.48 62.31 L371.69 63.66 L369.06 66.39 L370.08 68.77 L372.74 70.74 L373.45 72.28 L376.01 74.10 L375.23 77.24 L374.19 77.83 L371.50 82.53 L372.12 84.77 L370.64 86.96 L370.98 89.56 L372.32 90.51 L378.52 91.28 L377.44 94.14 L378.01 95.34 L376.61 98.81 L377.78 99.76 L380.46 97.40 L382.46 99.03 L384.91 103.66 L386.48 104.30 L387.73 106.46 L387.38 108.59 L388.81 109.19 L389.30 112.50 L387.60 113.29 L386.28 115.25 L386.45 116.68 L385.44 118.40 L382.42 119.32 L381.57 120.68 L378.28 121.12 L376.69 120.82 L372.63 121.80 L371.53 123.97 L372.17 124.80 L371.42 127.95 L371.86 133.60 L374.77 137.40 L379.12 138.97 L378.80 140.11 L381.20 141.88 L383.58 141.14 L386.10 142.64 L385.15 144.24 L384.41 147.94 L385.71 149.45 L385.42 154.14 L386.44 155.64 L386.07 156.98 L389.35 157.74 L389.45 159.73 L393.44 160.67 L394.46 164.40 L397.33 165.56 L399.70 167.22 L398.28 169.76 L398.03 171.97 L396.25 173.19 L396.03 175.26 L394.47 175.52 L395.07 178.94 L396.16 180.57 L396.25 183.09 L393.94 184.94 L391.04 188.01 L389.84 186.41 L387.53 187.40 L383.51 188.23 L382.66 191.21 L380.88 192.12 L378.30 192.38 L377.46 193.62 L378.22 195.65 L374.78 196.72 L372.14 194.50 L368.86 193.30 L366.71 195.71 L364.66 194.87 L362.35 195.36 L361.78 197.01 L358.64 198.59 L357.57 197.32 L354.68 197.15 L353.16 199.13 L351.21 199.72 L349.82 198.66 L347.55 200.54 L347.99 204.18 L345.44 204.64 L344.46 203.50 L341.15 203.58 L339.00 202.70 L339.64 201.24 L338.85 199.10 L336.51 197.67 L334.13 198.68 L331.27 196.76 L328.96 198.66 L329.97 202.82 L328.27 203.21 L327.07 208.75 L330.62 210.41 L334.20 209.64 L335.81 210.05 L335.29 212.14 L336.30 213.23 L336.34 215.58 L338.55 216.21 L338.24 218.06 L338.52 221.36 L337.95 222.49 L338.24 225.13 L336.88 225.92 L334.24 223.30 L331.93 223.61 L330.53 225.48 L326.52 224.82 L324.62 225.31 L321.48 224.51 L320.26 226.37 L316.18 229.26 L314.21 227.00 L312.33 228.84 L310.42 229.04 L308.23 230.50 L310.32 231.92 L310.50 232.94 L306.20 235.77 L304.57 235.33 L303.73 236.32 L300.62 236.03 L299.21 237.23 L297.26 240.70 L299.16 241.38 L299.06 242.90 L297.11 244.12 L296.46 246.27 L293.74 245.29 L291.67 247.72 L285.42 246.51 L285.59 250.81 L283.65 253.58 L282.13 257.72 L284.36 258.62 L287.11 262.02 L284.54 262.09 L283.54 265.05 L282.60 265.79 L279.55 264.83 L276.15 263.11 L273.44 263.13 L271.87 265.73 L272.29 267.63 L274.80 268.72 L273.18 270.55 L271.01 269.29 L268.89 270.01 L270.71 273.50 L270.11 275.80 L272.01 275.88 L272.66 277.62 L274.41 279.11 L276.54 277.85 L277.69 279.48 L283.60 279.59 L282.93 282.07 L285.13 282.99 L284.70 284.54 L285.85 285.80 L287.98 285.49 L287.74 289.18 L288.36 289.90 L287.97 294.18 L286.16 294.37 L285.81 296.78 L288.46 297.10 L288.16 298.87 L284.68 298.32 L285.27 296.65 L283.04 294.52 L280.57 294.53 L279.69 296.30 L281.07 297.67 L278.73 298.48 L277.92 300.30 L274.84 302.00 L271.57 301.64 L270.16 298.29 L266.28 297.92 L266.37 293.19 L264.11 291.91 L262.84 292.93 L259.54 291.80 L256.89 290.19 L255.53 291.93 L250.85 291.15 L249.36 290.10 L249.85 288.58 L248.98 284.81 L250.27 283.78 L250.68 281.98 L245.63 285.07 L243.55 284.60 L242.37 282.11 L238.30 284.33 L236.51 284.52 L232.91 286.87 L228.92 286.94 L225.04 290.37 L224.11 289.96 L224.01 287.33 L223.30 285.03 L223.41 282.55 L220.27 280.33 L217.15 280.19 L214.11 280.83 L212.00 279.87 L212.21 282.74 L211.90 286.02 L211.07 284.72 L209.60 285.18 L208.76 283.94 L205.06 282.53 L204.14 280.80 L201.09 278.89 L197.70 278.64 L197.22 279.37 L197.02 283.31 L195.86 284.30 L193.36 284.10 L192.75 282.64 L193.67 279.44 L192.44 278.13 L190.97 278.87 L188.70 278.86 L187.64 280.47 L185.17 281.44 L185.24 283.66 L184.36 285.57 L182.98 286.60 L181.68 286.05 L179.75 283.92 L177.63 282.99 L176.97 281.10 L174.39 281.57 L173.19 279.05 L169.11 280.13 L167.61 281.16 L166.53 279.77 L167.76 278.89 L167.73 274.80 L168.87 272.06 L167.34 270.72 L166.59 267.85 L163.67 266.39 L162.89 265.04 L162.45 260.65 L160.01 254.64 L158.14 254.75 L157.01 251.13 L155.93 249.97 L156.01 246.50 L154.17 243.61 L153.62 236.83 L151.69 236.42 L152.16 234.35 L149.18 232.84 L145.48 228.79 L144.87 227.03 L143.27 227.74 L139.28 227.96 L139.49 226.45 L138.24 223.22 L136.13 222.59 L133.75 223.10 L134.02 224.76 L133.35 228.22 L129.71 228.03 L127.18 228.49 L125.15 229.97 L123.71 226.81 L122.45 225.31 L122.00 222.59 L120.12 218.67 L120.53 217.54 L119.69 214.63 L118.34 215.01 L116.49 213.05 L114.76 214.68 L111.87 216.49 L110.91 217.77 L107.78 217.02 L108.22 218.83 L106.69 219.56 L107.25 221.78 L105.72 223.14 L103.23 224.32 L102.02 223.21 L100.17 220.18 L97.54 221.91 L96.66 225.37 L97.09 227.47 L95.02 227.41 L93.28 230.53 L93.28 234.58 L92.02 236.26 L91.84 238.28 L90.91 239.98 L88.36 247.17 L87.72 247.06 L85.50 243.81 L84.17 238.58 L84.89 236.82 L83.85 234.55 L84.87 233.15 L83.81 231.57 L81.83 232.40 L80.80 230.66 L80.12 227.90 L79.00 225.63 L79.33 223.20 L75.90 223.73 L75.05 223.28 L72.88 225.17 L73.30 221.81 L72.94 218.95 L71.68 217.14 L69.79 216.68 L68.72 217.49 L67.97 219.77 L66.11 219.75 L64.37 221.95 L63.72 223.69 L61.86 223.99 L60.29 226.47 L60.95 227.77 L59.85 228.90 L60.04 231.73 L57.51 233.25 L56.72 237.28 L56.99 238.96 L52.75 242.41 L51.43 246.58 L49.14 246.80 L47.86 247.78 L43.94 246.53 L42.75 247.52 L40.29 246.55 L39.85 244.57 L37.20 244.89 L34.23 246.42 L32.58 246.09 L31.08 247.26 L31.01 250.21 L28.19 247.86 L27.86 245.25 L28.91 244.07 L26.95 241.43 L26.55 239.23 L27.01 235.87 L28.01 233.78 L28.00 229.75 L26.00 228.49 L22.56 223.36 L22.05 220.41 L23.65 219.41 L21.46 217.13 L21.58 214.87 L20.30 212.52 L22.59 211.60 L25.49 211.58 L26.06 209.45 L24.29 207.85 L22.69 204.19 L26.02 200.99 L28.36 201.52 L29.57 197.69 L29.10 196.15 L31.02 195.01 L31.05 193.41 L29.72 188.54 L30.80 186.10 L33.33 182.72 L34.79 181.68 L35.57 179.66 L36.93 179.96 L39.18 176.13 L41.60 175.64 L41.67 173.43 L42.66 172.44 L43.00 169.43 L41.90 167.86 L43.66 166.50 L45.15 167.99 L46.95 168.30 L48.70 169.77 L51.63 170.23 L54.41 169.65 L54.58 168.58 L51.76 166.09 L53.18 161.24 L53.30 159.72 L53.92 154.93 L53.89 151.80 L52.01 151.06 L50.01 147.42 L51.08 146.03 L51.45 142.70 L53.98 142.67 L54.53 140.80 L53.61 139.48 L54.64 137.82 L54.24 135.55 L52.10 132.27 L49.33 129.81 L47.90 129.16 L47.30 126.26 L44.38 122.74 L45.37 121.66 L47.24 121.96 L50.50 117.96 L52.10 118.84 L54.75 115.10 L56.51 110.62 L57.84 108.75 L60.89 107.43 L59.67 105.49 L60.27 100.79 L57.99 99.20 L56.55 95.56 L56.42 91.66 L57.52 89.09 L57.11 85.84 L54.76 84.46 L53.85 79.04 L52.07 77.87 L50.98 75.57 L51.25 74.32 L48.46 72.82 L46.85 73.93 L46.79 71.19 L44.67 69.06 L43.08 70.93 L41.93 69.53 L39.57 69.14 L38.07 66.44 L39.59 65.14 L36.74 63.02 L36.46 59.36 L36.81 55.80 L38.27 53.44 L41.72 49.48 L42.92 48.81 L48.64 48.64 L51.42 47.28 L52.61 48.50 L54.80 47.62 L55.39 48.68 L60.82 45.40 L60.17 41.08 L58.45 39.61 L59.84 36.01 L58.03 33.61 L59.92 33.05 L61.86 33.91 L63.64 30.43 L67.62 26.23 L68.57 24.42 L70.26 24.57 L71.85 27.32 L74.25 25.62 L76.95 25.42 L83.04 20.65 L82.92 19.73 L86.75 18.00 L92.10 18.97 L93.36 22.95 L95.94 25.17 L99.33 26.29 L101.81 29.93 L104.33 31.40 L105.69 31.08 L109.71 27.42 L112.01 27.47 L112.98 30.45 L115.41 30.91 L116.87 30.18 L118.45 27.63 L121.88 27.95 L121.80 29.95 L123.34 30.94 L122.86 33.17 L123.45 34.37 L125.92 33.53 L128.54 30.74 L130.21 31.58 L131.22 30.37 L130.49 27.52 L132.49 27.63 L134.02 26.64 L132.37 23.88 L136.35 23.89 L136.98 28.45 L137.98 28.93 L139.28 32.09 L141.35 33.49 L142.48 36.40 L142.61 38.51 L143.98 39.49 L144.77 43.74 L143.91 45.46 L144.68 46.54 L146.58 46.60 L149.12 48.65 L151.51 47.44 L151.93 48.91 L153.77 49.75 L153.56 51.65 L155.69 52.81 L157.80 51.22 L160.69 51.90 L163.66 54.51 L162.92 57.74 L163.51 58.61 L162.11 61.63 L163.18 64.81 L162.81 70.22 L160.11 70.07 L159.93 71.91 L157.40 72.64 L156.36 74.86 L157.09 76.81 L155.66 81.44 L157.40 82.25 L161.77 82.70 L162.45 85.53 L166.06 86.23 L167.65 84.95 L171.51 83.17 L173.68 85.42 L177.76 85.66 L177.47 84.28 L179.21 83.55 L180.45 85.35 L182.87 84.63 L182.85 87.56 L184.68 87.64 L185.46 85.94 L187.19 85.99 L190.63 83.47 L192.55 80.88 L192.85 76.24 L193.87 72.70 L197.76 72.60 L199.99 73.57 L201.14 75.80 L203.60 75.51 L205.13 72.86 L207.25 75.64 L209.63 76.05 L209.51 74.36 L212.30 71.91 L214.83 72.14 L216.22 73.93 L214.15 76.71 L218.31 79.33 L217.19 80.60 L218.27 81.83 L217.21 83.64 L217.92 85.31 L219.92 85.96 L221.60 85.49 Z M229.95 276.24 L228.37 277.82 L230.13 279.01 L229.12 280.38 L229.70 282.54 L232.12 282.05 L236.30 283.22 L239.61 278.20 L239.89 276.45 L241.74 276.26 L241.50 274.54 L239.05 273.34 L238.87 272.04 L237.04 270.19 L235.17 270.32 L231.85 271.79 L230.97 275.28 L229.95 276.24 Z" fill="rgba(255,255,255,.95)" stroke="rgba(6,40,70,.22)" stroke-width="2.5" vector-effect="non-scaling-stroke"/>
</svg>
