<svg xmlns="http://www.w3.org/2000/svg" viewBox="0 0 420 320" role="img" aria-label="Grand Est">
  <title>Grand Est</title>
  <path d="M102.26 39.59 L107.38 38.34 L110.22 40.19 L112.22 40.09 L116.87 41.74 L119.23 40.64 L121.20 40.77 L123.26 38.51 L125.52 37.20 L132.42 35.47 L134.10 29.39 L132.97 27.79 L134.29 24.95 L137.66 23.22 L138.39 20.59 L142.64 18.00 L143.16 18.72 L146.41 18.93 L147.46 20.79 L145.81 21.89 L145.66 24.72 L144.48 24.33 L142.98 30.00 L143.74 31.11 L142.14 33.44 L142.27 35.62 L140.30 38.29 L140.36 39.53 L144.41 40.79 L144.95 42.23 L147.07 44.69 L144.51 49.85 L145.59 52.07 L145.56 54.81 L144.76 57.12 L149.92 57.70 L151.64 56.18 L154.56 56.39 L155.25 58.22 L158.95 60.34 L160.80 60.01 L162.50 62.51 L163.22 65.35 L165.97 66.13 L165.99 67.63 L168.90 67.46 L171.28 68.39 L172.89 67.25 L177.31 71.66 L175.71 73.65 L175.93 76.00 L178.06 74.61 L181.52 75.63 L184.07 78.19 L184.82 82.61 L186.40 83.87 L185.21 86.13 L186.80 88.25 L191.60 86.35 L192.62 84.88 L195.17 85.65 L196.70 85.11 L198.13 83.22 L199.93 82.41 L202.53 83.80 L204.67 83.28 L207.53 81.33 L208.86 82.57 L211.80 83.49 L211.75 85.87 L214.00 88.09 L215.66 88.28 L218.83 87.86 L221.01 88.87 L221.74 93.10 L224.82 92.63 L226.73 91.60 L228.17 91.78 L231.37 90.75 L233.54 87.56 L240.45 86.91 L242.00 87.61 L243.19 90.05 L244.28 90.03 L247.82 92.22 L250.78 91.37 L251.56 90.59 L255.04 91.87 L260.80 96.54 L259.85 98.34 L261.41 99.69 L263.03 100.05 L261.76 104.24 L263.61 105.78 L263.16 106.63 L265.11 108.72 L266.55 109.42 L268.03 113.04 L269.69 114.99 L270.39 117.75 L272.09 117.18 L272.90 118.78 L271.52 120.61 L273.37 123.21 L276.52 122.75 L279.93 124.48 L281.74 121.64 L281.09 119.36 L279.99 118.23 L281.50 117.08 L283.39 118.26 L286.82 117.10 L288.45 119.10 L289.50 118.39 L291.15 120.01 L293.58 120.49 L293.12 122.54 L294.39 125.83 L294.94 128.54 L298.25 125.63 L301.94 127.63 L303.80 126.65 L305.35 127.40 L307.99 126.74 L310.53 128.09 L311.63 128.03 L313.76 125.16 L316.02 125.13 L316.24 122.29 L321.63 121.05 L322.32 122.93 L324.97 122.58 L324.85 125.49 L326.44 127.65 L327.36 130.14 L330.10 131.96 L332.21 131.59 L334.33 132.96 L334.62 134.63 L337.30 135.58 L339.54 134.64 L341.24 135.65 L343.78 135.30 L345.50 133.42 L350.57 136.72 L352.13 135.32 L353.84 136.01 L355.07 134.25 L357.01 135.80 L358.17 137.55 L359.31 137.32 L362.89 138.80 L365.77 141.39 L369.08 142.52 L374.74 142.78 L375.43 143.71 L372.90 144.83 L369.03 151.41 L368.04 153.72 L366.11 159.98 L363.56 162.21 L361.52 162.46 L361.09 164.33 L359.87 165.33 L357.46 165.67 L357.01 169.20 L352.08 175.23 L348.59 177.47 L347.83 179.92 L346.16 182.54 L345.89 183.95 L346.35 189.89 L345.51 191.85 L343.70 193.13 L343.47 196.53 L341.50 201.94 L341.23 204.89 L342.12 208.98 L341.31 210.81 L339.26 211.74 L336.84 220.45 L335.35 221.98 L334.15 224.71 L332.29 227.16 L332.01 229.74 L330.66 231.05 L330.84 232.52 L330.11 235.04 L330.27 240.25 L332.58 242.97 L333.72 246.18 L331.07 250.38 L331.09 253.38 L329.26 255.59 L329.72 258.42 L327.52 265.07 L327.58 266.97 L328.67 269.86 L328.35 271.66 L326.32 273.60 L326.91 277.71 L329.92 280.69 L331.68 284.49 L331.17 286.32 L325.80 289.66 L327.11 292.13 L325.88 292.60 L325.84 294.58 L324.48 295.99 L320.91 294.35 L320.10 295.72 L321.98 296.64 L319.94 299.66 L317.25 301.02 L314.29 300.11 L310.46 300.79 L308.05 302.00 L307.13 300.32 L305.35 300.73 L302.90 299.76 L303.98 295.03 L302.09 295.08 L300.14 293.83 L300.51 290.45 L298.49 288.94 L297.13 284.78 L295.65 283.91 L292.97 284.76 L291.57 282.06 L292.52 278.89 L294.40 276.77 L293.04 273.78 L293.79 271.69 L292.04 269.65 L289.26 268.53 L287.17 266.62 L286.04 266.73 L281.84 265.11 L280.88 263.54 L280.73 261.39 L279.18 262.40 L277.04 260.67 L276.54 258.68 L273.32 257.46 L271.00 255.44 L266.90 253.04 L266.72 251.94 L264.41 249.15 L261.42 250.35 L259.96 253.28 L255.47 254.43 L254.08 252.86 L252.42 249.08 L247.94 247.23 L245.10 248.53 L241.88 248.06 L239.19 250.20 L237.16 249.51 L236.14 248.13 L234.41 248.21 L233.34 243.85 L233.59 242.70 L231.91 240.89 L225.75 242.90 L224.54 245.58 L222.57 247.65 L220.94 247.72 L219.77 249.77 L218.68 248.36 L220.17 246.84 L218.62 245.51 L217.35 246.86 L217.34 248.72 L216.11 248.99 L215.06 250.89 L215.48 252.45 L214.05 253.48 L212.78 252.94 L209.66 258.91 L206.63 257.69 L205.46 258.77 L205.59 261.33 L204.67 261.94 L202.44 261.29 L201.21 263.07 L201.08 266.78 L202.79 266.87 L203.09 269.30 L201.99 270.07 L201.36 272.67 L201.77 275.42 L199.26 276.18 L195.39 276.76 L194.59 273.90 L193.38 273.35 L190.82 276.64 L187.60 275.45 L185.10 276.85 L182.39 276.58 L182.35 279.27 L180.13 282.16 L180.19 283.56 L178.88 284.90 L177.86 283.10 L175.12 283.52 L171.91 286.36 L170.94 284.30 L170.98 282.39 L169.08 279.78 L166.49 278.69 L166.82 275.82 L163.39 279.19 L160.44 278.22 L157.61 276.27 L156.69 272.93 L154.11 275.07 L151.90 274.19 L151.48 273.18 L152.71 270.82 L151.20 267.28 L149.91 267.66 L149.06 266.03 L153.77 263.39 L154.22 261.74 L152.48 260.48 L151.50 256.93 L149.74 256.49 L149.73 254.89 L147.93 251.38 L146.19 251.49 L144.87 253.97 L142.96 252.01 L145.49 249.42 L144.06 247.30 L141.73 247.50 L139.96 246.53 L140.61 245.07 L140.23 242.55 L137.52 242.92 L135.51 242.44 L134.44 241.29 L132.32 241.81 L128.47 240.15 L126.14 240.34 L122.94 243.23 L124.58 246.27 L121.73 246.76 L120.03 246.53 L117.01 247.72 L114.64 246.60 L110.33 247.78 L107.44 247.31 L106.38 250.93 L104.48 251.09 L102.92 250.29 L101.51 248.48 L101.94 246.50 L100.46 246.19 L100.53 248.80 L97.70 247.45 L93.97 250.80 L92.69 249.17 L90.52 248.90 L89.43 250.90 L87.58 250.65 L86.60 249.26 L85.38 250.43 L82.80 250.40 L79.62 249.61 L80.51 245.83 L79.52 243.56 L78.03 245.45 L76.10 245.01 L75.40 242.95 L77.50 241.76 L74.34 238.97 L74.36 237.09 L73.14 234.78 L73.02 232.87 L70.86 230.10 L68.56 229.78 L69.60 227.99 L68.60 226.00 L66.19 228.60 L63.66 229.12 L61.86 224.54 L60.36 223.84 L58.62 225.06 L57.33 224.05 L59.78 221.68 L60.50 220.26 L59.03 219.10 L60.68 217.31 L60.17 215.58 L58.15 214.68 L58.20 212.56 L56.74 211.88 L56.52 210.44 L54.41 208.48 L52.10 205.59 L48.95 205.00 L47.24 206.48 L46.37 203.36 L46.87 200.99 L44.81 199.86 L45.80 196.97 L44.57 194.09 L47.74 192.32 L45.73 189.18 L46.96 188.61 L49.40 188.90 L50.80 187.46 L49.84 184.80 L52.02 182.79 L52.45 181.25 L55.99 179.65 L53.49 178.29 L53.39 177.27 L49.49 176.27 L48.14 175.17 L50.10 172.82 L49.75 170.65 L50.12 167.49 L48.39 167.61 L47.42 165.52 L45.08 165.28 L46.01 162.73 L48.29 162.49 L47.56 159.78 L51.16 158.46 L51.18 155.67 L52.76 151.67 L54.14 149.41 L57.24 148.44 L57.28 146.62 L59.16 145.99 L58.44 144.40 L60.43 143.82 L61.67 140.04 L63.47 139.69 L64.36 138.51 L63.39 136.39 L62.28 135.96 L58.17 136.75 L58.18 134.09 L61.69 131.80 L59.83 127.97 L59.73 126.15 L60.54 124.52 L62.67 124.77 L64.75 124.17 L65.96 125.36 L69.18 123.90 L69.34 121.74 L67.59 122.18 L66.15 121.36 L65.65 118.84 L63.29 118.47 L63.86 115.27 L62.79 112.84 L62.94 109.89 L62.02 107.62 L65.78 105.60 L68.73 105.12 L71.15 103.10 L74.22 102.98 L75.96 102.25 L76.53 100.44 L75.25 98.92 L77.11 97.90 L79.38 99.17 L81.23 97.67 L83.70 100.84 L85.99 100.78 L87.21 102.84 L88.76 102.67 L89.07 98.74 L89.62 97.87 L88.91 94.45 L90.27 93.09 L89.23 91.25 L89.12 87.06 L91.62 85.31 L91.53 83.77 L90.32 82.43 L91.57 80.47 L88.48 75.93 L89.21 74.29 L90.73 73.54 L92.88 74.37 L94.84 72.20 L95.02 69.21 L96.19 68.09 L98.95 67.01 L99.40 65.17 L101.69 64.01 L101.91 62.27 L103.20 61.09 L102.61 59.76 L100.52 58.31 L101.82 57.05 L100.97 55.67 L101.61 52.70 L103.33 50.30 L103.80 45.38 L101.17 44.15 L102.26 39.59 Z" fill="rgba(255,255,255,.95)" stroke="rgba(6,40,70,.22)" stroke-width="2.5" vector-effect="non-scaling-stroke"/>
</svg>
