<svg xmlns="http://www.w3.org/2000/svg" viewBox="0 0 420 320" role="img" aria-label="Île-de-France">
  <title>Île-de-France</title>
  <path d="M225.04 57.40 L232.26 49.99 L238.99 54.51 L244.67 61.00 L252.58 62.28 L258.24 58.53 L259.05 54.68 L268.05 56.11 L269.90 59.88 L276.46 58.07 L277.57 55.93 L289.92 58.65 L295.65 54.35 L302.38 55.68 L306.35 47.63 L311.76 50.13 L317.20 50.25 L322.12 52.25 L320.15 56.47 L324.93 62.25 L322.64 73.64 L332.92 80.91 L336.75 85.04 L339.46 93.80 L345.69 91.12 L347.10 98.20 L350.01 101.42 L356.10 97.78 L358.88 106.55 L358.48 110.14 L362.56 112.94 L370.61 114.88 L372.04 119.21 L376.17 116.01 L376.14 122.91 L367.22 126.18 L369.03 132.87 L363.37 133.47 L361.08 139.77 L366.88 140.38 L369.28 145.56 L373.56 145.25 L372.64 153.06 L373.50 158.42 L368.64 164.25 L371.99 166.97 L381.63 169.44 L381.90 171.96 L388.07 175.34 L379.33 179.29 L378.25 183.08 L372.85 188.06 L375.23 194.63 L371.78 198.20 L365.74 197.48 L362.69 198.89 L367.67 206.67 L359.82 211.03 L362.88 218.16 L360.42 225.32 L365.51 228.11 L364.28 233.98 L358.96 231.58 L356.24 232.95 L355.90 238.56 L345.76 238.41 L341.91 237.23 L337.18 240.40 L333.54 239.06 L328.31 240.66 L317.84 238.48 L310.91 242.24 L302.57 241.65 L300.42 246.74 L301.25 249.46 L296.90 254.92 L301.58 264.03 L295.08 280.35 L289.90 280.89 L289.30 283.77 L283.19 287.66 L283.45 291.57 L271.92 293.33 L263.95 300.11 L260.05 297.32 L260.24 290.33 L250.53 292.49 L252.85 296.06 L246.99 298.28 L244.64 301.34 L237.35 302.00 L233.35 297.78 L227.09 299.65 L221.66 297.29 L216.08 297.41 L213.38 300.71 L208.11 300.89 L203.01 298.29 L206.91 291.29 L210.81 293.33 L211.32 286.73 L213.65 283.59 L210.91 275.71 L204.52 268.28 L201.72 269.61 L196.86 267.01 L196.41 257.27 L193.30 251.66 L186.65 254.49 L180.64 248.53 L178.08 249.10 L175.18 254.84 L165.49 252.77 L163.10 247.68 L159.44 245.60 L155.80 253.96 L151.58 255.79 L139.05 258.55 L134.18 258.08 L132.68 260.37 L124.28 260.33 L121.10 260.18 L118.39 254.72 L121.90 252.23 L120.21 246.84 L123.05 241.14 L120.79 234.35 L121.32 231.66 L112.76 228.27 L115.25 225.09 L112.12 216.84 L109.46 221.29 L103.60 221.38 L99.07 218.94 L96.92 214.30 L92.03 213.03 L87.58 203.66 L87.39 198.97 L89.34 192.33 L85.63 188.34 L76.16 186.13 L74.93 184.35 L77.11 176.84 L68.89 177.02 L66.42 170.77 L58.23 164.56 L59.69 157.64 L54.25 154.48 L62.16 142.63 L55.61 136.10 L53.59 131.76 L56.22 125.51 L53.86 117.94 L54.59 115.21 L48.62 110.74 L50.86 108.27 L47.32 101.94 L47.33 98.05 L42.05 96.56 L41.07 93.10 L40.37 83.19 L36.94 83.39 L36.94 73.60 L33.68 71.16 L31.93 66.29 L34.19 61.76 L38.26 64.65 L47.24 59.29 L50.45 59.99 L57.99 56.15 L59.19 57.86 L63.62 48.47 L67.13 44.37 L68.58 38.38 L70.22 23.68 L75.33 18.00 L80.36 20.83 L81.72 31.46 L83.92 32.91 L90.72 30.14 L99.18 34.11 L104.50 33.71 L105.89 35.98 L113.70 33.00 L118.64 33.17 L120.84 30.52 L125.38 32.61 L137.93 24.08 L141.64 28.98 L147.70 28.56 L156.01 33.13 L162.21 31.32 L167.93 38.50 L173.66 36.69 L177.80 29.84 L183.77 36.20 L191.38 39.42 L195.06 38.64 L204.94 43.01 L210.29 47.62 L208.04 50.51 L219.57 52.57 L225.04 57.40 Z" fill="rgba(255,255,255,.95)" stroke="rgba(6,40,70,.22)" stroke-width="2.5" vector-effect="non-scaling-stroke"/>
</svg>
