<svg xmlns="http://www.w3.org/2000/svg" viewBox="0 0 420 320" role="img" aria-label="Provence-Alpes-Côte d&#x27;Azur">
  <title>Provence-Alpes-Côte d&#x27;Azur</title>
  <path d="M302.86 81.43 L304.19 85.21 L302.86 86.43 L301.37 89.74 L301.30 92.41 L299.51 94.27 L295.97 95.43 L293.88 98.24 L294.99 102.79 L296.54 105.16 L298.86 106.55 L299.31 108.48 L301.79 110.28 L301.78 111.50 L297.57 112.69 L297.92 118.89 L297.06 120.65 L300.40 122.03 L300.77 124.15 L304.02 127.33 L303.57 129.17 L307.15 131.32 L307.50 135.16 L308.54 137.23 L311.47 138.92 L314.46 137.69 L318.46 139.77 L321.20 141.94 L322.98 141.24 L327.14 144.09 L328.61 146.19 L330.34 145.47 L331.44 147.58 L334.46 149.88 L340.18 149.28 L341.90 152.93 L344.80 152.05 L348.41 153.01 L348.71 151.65 L351.57 151.93 L355.92 149.55 L360.78 149.11 L362.72 148.32 L366.28 148.75 L369.19 145.00 L372.95 145.52 L371.64 148.21 L371.29 150.90 L371.99 152.95 L375.92 157.62 L375.76 159.92 L374.42 163.18 L371.08 164.52 L371.58 168.78 L369.91 171.91 L365.87 174.52 L364.60 174.33 L362.32 176.81 L361.08 179.90 L361.01 182.16 L356.45 184.15 L354.92 186.79 L357.12 194.57 L358.25 196.58 L354.44 199.33 L353.08 201.50 L351.54 200.28 L347.02 203.66 L347.12 204.93 L343.48 205.88 L342.12 205.25 L339.91 206.64 L338.86 208.69 L336.07 210.01 L334.92 208.94 L330.99 209.59 L329.28 213.16 L327.43 215.34 L326.29 213.73 L322.80 214.26 L321.03 216.60 L319.48 222.88 L319.37 226.67 L317.42 225.20 L314.21 226.39 L313.10 228.18 L309.19 227.80 L305.33 228.43 L303.22 229.92 L301.91 232.33 L303.47 233.86 L302.74 236.53 L301.46 237.10 L300.43 240.81 L298.74 241.65 L297.47 243.85 L294.16 243.60 L294.34 245.66 L291.28 245.32 L287.09 246.36 L285.52 244.48 L282.42 246.86 L282.26 248.98 L280.58 251.80 L280.16 254.85 L277.31 255.41 L275.97 258.30 L268.16 263.66 L268.36 265.33 L271.66 265.37 L273.49 264.06 L275.61 265.28 L277.05 263.46 L278.94 265.08 L278.29 266.64 L275.75 268.79 L276.34 272.98 L273.73 275.71 L271.62 278.89 L268.92 275.66 L265.54 275.32 L259.75 280.14 L256.31 279.52 L251.14 280.42 L247.67 281.99 L246.82 284.21 L247.40 288.25 L244.23 287.97 L242.72 286.00 L238.74 284.10 L235.54 285.00 L232.38 284.66 L229.73 285.90 L227.84 288.20 L226.85 291.86 L227.52 296.14 L223.68 294.73 L225.10 293.58 L224.56 289.74 L219.85 288.51 L215.56 289.75 L214.80 287.49 L213.17 286.29 L206.95 285.80 L205.01 283.69 L203.04 285.09 L204.62 288.68 L200.38 290.97 L199.00 293.77 L196.27 293.41 L193.96 289.64 L194.85 285.88 L190.97 284.51 L191.72 282.77 L186.47 282.04 L185.82 280.64 L183.52 281.12 L181.33 276.47 L179.49 275.42 L176.79 275.46 L174.57 278.65 L171.55 276.98 L167.95 272.19 L165.93 274.06 L160.63 272.37 L154.59 272.17 L151.99 272.83 L149.82 271.85 L150.53 269.86 L152.83 267.87 L152.23 264.70 L150.28 262.99 L152.06 259.10 L148.20 253.24 L145.59 252.89 L141.76 255.81 L138.44 256.98 L134.26 256.29 L133.39 257.03 L120.97 256.89 L119.18 255.07 L119.68 253.42 L115.07 247.30 L114.29 244.17 L110.83 243.25 L108.45 245.01 L104.44 246.78 L102.99 250.94 L105.45 252.77 L103.56 256.42 L101.47 256.78 L96.74 254.51 L90.49 254.10 L85.16 254.61 L77.93 252.83 L75.74 251.25 L75.23 249.13 L78.11 247.50 L77.57 243.59 L75.67 241.93 L71.32 240.42 L66.46 240.10 L60.45 241.40 L58.53 240.74 L44.08 239.71 L44.98 234.59 L50.33 232.57 L55.83 228.26 L61.13 226.45 L62.67 223.29 L65.03 223.51 L67.40 220.25 L64.03 219.94 L62.82 218.63 L65.41 212.58 L67.43 211.99 L68.55 208.29 L73.28 207.20 L77.56 208.67 L78.62 209.84 L81.92 209.43 L80.52 206.31 L80.58 204.26 L82.14 199.93 L84.16 197.35 L84.50 194.70 L83.32 190.86 L85.60 189.10 L83.27 186.10 L88.17 183.79 L91.03 181.02 L92.52 178.63 L96.33 176.80 L99.76 172.87 L99.85 170.06 L102.33 170.37 L101.91 166.60 L97.29 161.67 L97.18 159.97 L94.31 158.35 L91.67 158.12 L89.51 154.85 L90.90 143.74 L89.35 143.03 L89.43 140.15 L86.58 140.40 L86.41 136.95 L84.43 134.85 L83.97 132.72 L84.37 128.50 L84.10 124.81 L86.81 126.05 L90.72 125.22 L94.73 125.40 L98.76 128.26 L98.62 131.44 L99.53 134.40 L99.67 137.78 L100.86 138.31 L105.85 133.90 L110.98 133.81 L115.60 130.79 L117.89 130.54 L123.13 127.69 L124.65 130.89 L127.31 131.50 L133.81 127.53 L133.28 129.83 L131.62 131.16 L132.74 136.01 L132.11 137.96 L134.02 139.30 L140.04 140.31 L141.79 138.08 L145.19 140.15 L149.43 141.60 L151.07 140.28 L153.97 141.93 L153.85 148.00 L158.85 148.48 L160.66 152.79 L164.85 153.25 L168.82 151.06 L169.85 148.73 L172.87 147.69 L171.10 145.93 L172.22 143.66 L175.40 143.64 L178.26 146.37 L177.50 148.52 L181.97 149.22 L182.36 146.95 L178.96 146.54 L179.40 143.45 L181.73 143.21 L182.23 137.70 L181.44 136.78 L181.74 132.03 L179.01 132.44 L177.53 130.81 L178.08 128.82 L175.26 127.64 L176.12 124.46 L168.52 124.32 L167.04 122.21 L164.31 123.83 L162.06 121.92 L161.22 119.68 L158.77 119.58 L159.54 116.63 L157.21 112.14 L159.94 111.22 L162.73 112.83 L164.81 110.49 L161.58 109.08 L161.04 106.64 L163.05 103.30 L166.54 103.28 L170.91 105.48 L174.84 106.72 L176.04 105.77 L177.32 101.97 L180.63 101.87 L177.09 97.51 L174.23 96.35 L176.18 91.02 L178.67 87.47 L178.46 81.93 L186.49 83.50 L189.14 80.38 L192.64 81.64 L193.47 78.87 L195.98 77.30 L196.11 75.35 L193.67 74.48 L196.17 70.01 L197.98 68.47 L201.99 68.85 L203.06 67.57 L205.16 68.14 L210.68 64.50 L210.45 63.19 L207.76 61.37 L210.59 59.48 L213.03 59.24 L215.45 56.87 L217.98 59.77 L223.23 56.06 L224.79 53.67 L228.83 54.70 L231.27 54.06 L236.42 54.91 L238.22 52.52 L241.20 52.11 L244.59 55.49 L246.34 54.47 L245.97 51.08 L246.69 49.62 L246.33 45.38 L246.73 43.00 L243.89 42.19 L243.84 39.17 L242.54 37.77 L243.21 35.09 L241.15 34.56 L236.54 35.54 L231.98 33.42 L233.52 26.29 L235.71 25.79 L234.41 20.44 L237.38 18.00 L241.06 20.47 L244.11 19.18 L247.12 21.02 L248.13 23.76 L247.31 25.64 L250.07 26.77 L254.33 26.67 L255.58 28.13 L258.86 27.54 L258.30 22.86 L261.22 20.44 L263.00 21.81 L265.50 21.06 L267.46 18.51 L271.17 18.72 L272.55 20.36 L272.31 21.46 L275.61 25.45 L275.29 28.06 L276.59 32.21 L281.66 32.20 L283.35 32.95 L284.09 35.43 L282.80 36.24 L285.26 38.97 L284.27 42.77 L284.04 47.79 L285.99 48.09 L289.30 51.69 L294.75 55.19 L299.56 55.88 L301.46 53.65 L305.17 55.77 L308.42 56.70 L309.51 60.33 L307.73 63.39 L310.13 67.02 L310.08 69.85 L311.93 72.95 L314.04 73.56 L315.12 77.94 L313.46 78.07 L310.03 76.55 L306.46 76.98 L303.73 79.43 L302.86 81.43 Z M118.74 227.19 L118.84 230.58 L117.23 234.73 L117.81 238.40 L120.98 238.33 L122.30 239.26 L124.07 247.57 L127.90 247.05 L130.43 247.57 L132.62 246.15 L135.57 243.02 L138.89 240.70 L138.55 236.65 L136.67 235.64 L131.20 239.92 L127.14 231.06 L123.49 230.83 L121.79 231.57 L120.51 228.56 L118.74 227.19 Z M253.96 297.81 L255.91 296.35 L257.34 293.95 L259.18 294.28 L257.30 297.71 L253.96 297.81 Z M250.37 300.77 L249.00 298.24 L252.62 298.05 L250.37 300.77 Z M235.81 297.23 L236.41 299.91 L232.44 302.00 L228.19 299.64 L229.54 298.75 L231.77 299.73 L235.81 297.23 Z M107.17 120.15 L108.48 118.91 L109.61 114.43 L113.87 112.54 L116.28 112.37 L118.63 114.75 L118.86 116.43 L122.01 117.96 L122.32 120.17 L119.94 120.41 L119.58 122.66 L115.33 129.11 L109.95 127.61 L106.84 128.24 L106.10 125.47 L107.40 123.71 L105.14 122.17 L107.17 120.15 Z" fill="rgba(255,255,255,.95)" stroke="rgba(6,40,70,.22)" stroke-width="2.5" vector-effect="non-scaling-stroke"/>
</svg>
