<svg xmlns="http://www.w3.org/2000/svg" viewBox="0 0 520 560" role="img" aria-label="Carte de France metropolitaine">
  <title>Carte de France metropolitaine</title>
  <desc>Contours des regions de France metropolitaine generes depuis france-geojson.</desc>
  <style>
    .france-region { fill: rgba(255,255,255,.94); stroke: rgba(6,40,70,.18); stroke-width: 2.2; vector-effect: non-scaling-stroke; }
    .france-region:nth-child(odd) { fill: rgba(248,250,252,.96); }
  </style>
  <g><path class="france-region" data-name="Île-de-France" d="M271.57 154.82 L272.93 153.42 L274.21 154.28 L275.28 155.50 L276.77 155.74 L277.84 155.04 L277.99 154.31 L279.70 154.58 L280.04 155.29 L281.28 154.95 L281.49 154.54 L283.83 155.06 L284.91 154.25 L286.18 154.50 L286.93 152.98 L287.95 153.45 L288.98 153.47 L289.91 153.85 L289.54 154.65 L290.44 155.74 L290.01 157.89 L291.95 159.26 L292.68 160.05 L293.19 161.70 L294.36 161.19 L294.63 162.53 L295.18 163.14 L296.33 162.45 L296.86 164.11 L296.78 164.79 L297.55 165.31 L299.07 165.68 L299.34 166.50 L300.12 165.90 L300.12 167.20 L298.43 167.82 L298.77 169.08 L297.70 169.19 L297.27 170.39 L298.37 170.50 L298.82 171.48 L299.63 171.42 L299.46 172.90 L299.62 173.91 L298.70 175.01 L299.33 175.52 L301.15 175.99 L301.20 176.47 L302.37 177.10 L300.72 177.85 L300.52 178.57 L299.50 179.51 L299.94 180.75 L299.29 181.42 L298.15 181.29 L297.58 181.56 L298.52 183.02 L297.03 183.85 L297.61 185.19 L297.15 186.55 L298.11 187.08 L297.88 188.18 L296.87 187.73 L296.36 187.99 L296.29 189.05 L294.38 189.02 L293.65 188.80 L292.76 189.40 L292.07 189.14 L291.08 189.45 L289.10 189.03 L287.79 189.74 L286.22 189.63 L285.81 190.59 L285.97 191.11 L285.15 192.14 L286.03 193.86 L284.80 196.94 L283.82 197.05 L283.71 197.59 L282.55 198.33 L282.60 199.06 L280.43 199.40 L278.92 200.68 L278.18 200.15 L278.22 198.83 L276.39 199.24 L276.82 199.91 L275.72 200.33 L275.27 200.91 L273.90 201.03 L273.14 200.24 L271.96 200.59 L270.93 200.14 L269.88 200.17 L269.37 200.79 L268.37 200.82 L267.41 200.33 L268.14 199.01 L268.88 199.40 L268.98 198.15 L269.42 197.56 L268.90 196.07 L267.69 194.66 L267.16 194.92 L266.25 194.42 L266.16 192.58 L265.57 191.52 L264.32 192.06 L263.18 190.93 L262.70 191.04 L262.15 192.12 L260.32 191.73 L259.87 190.77 L259.18 190.38 L258.49 191.96 L257.69 192.30 L255.32 192.83 L254.40 192.74 L254.12 193.17 L252.53 193.16 L251.93 193.13 L251.42 192.10 L252.08 191.63 L251.76 190.61 L252.30 189.54 L251.87 188.25 L251.97 187.75 L250.36 187.10 L250.83 186.50 L250.24 184.95 L249.73 185.79 L248.63 185.80 L247.77 185.34 L247.36 184.47 L246.44 184.23 L245.60 182.46 L245.56 181.57 L245.93 180.31 L245.23 179.56 L243.44 179.14 L243.21 178.81 L243.62 177.39 L242.07 177.42 L241.60 176.24 L240.05 175.07 L240.33 173.76 L239.30 173.16 L240.80 170.93 L239.56 169.69 L239.18 168.87 L239.67 167.69 L239.23 166.26 L239.37 165.75 L238.24 164.90 L238.66 164.43 L237.99 163.24 L238.00 162.50 L237.00 162.22 L236.81 161.57 L236.68 159.70 L236.03 159.73 L236.03 157.88 L235.41 157.42 L235.09 156.50 L235.51 155.65 L236.28 156.19 L237.98 155.18 L238.58 155.31 L240.01 154.59 L240.24 154.91 L241.07 153.13 L241.73 152.36 L242.01 151.23 L242.32 148.45 L243.29 147.38 L244.23 147.91 L244.49 149.92 L244.91 150.20 L246.19 149.67 L247.79 150.42 L248.80 150.35 L249.06 150.78 L250.53 150.21 L251.47 150.25 L251.88 149.74 L252.74 150.14 L255.11 148.53 L255.81 149.45 L256.96 149.37 L258.53 150.24 L259.70 149.90 L260.78 151.25 L261.86 150.91 L262.64 149.62 L263.77 150.82 L265.21 151.42 L265.91 151.28 L267.77 152.10 L268.78 152.97 L268.36 153.52 L270.54 153.91 L271.57 154.82 Z"/>
<path class="france-region" data-name="Centre-Val de Loire" d="M280.64 229.64 L281.08 230.16 L281.53 231.61 L282.44 233.36 L282.07 234.98 L280.60 237.76 L280.71 239.01 L281.69 239.52 L282.65 240.61 L284.11 241.93 L284.05 243.70 L284.93 245.68 L285.53 248.07 L285.64 249.78 L285.38 251.18 L286.64 251.99 L287.06 253.22 L286.64 254.78 L287.17 256.21 L286.24 258.29 L286.81 259.83 L286.86 260.98 L286.53 262.19 L285.66 263.69 L283.36 263.28 L281.71 264.02 L281.76 264.42 L279.14 266.47 L277.97 266.56 L276.94 267.29 L276.25 266.11 L275.53 266.04 L275.12 266.82 L273.40 268.63 L272.63 270.13 L271.80 269.76 L270.98 270.00 L271.76 271.03 L271.17 272.59 L271.91 273.22 L272.19 275.08 L269.85 276.49 L269.59 276.04 L268.65 276.42 L268.13 275.89 L266.94 276.48 L264.48 276.55 L263.96 276.84 L262.47 278.54 L261.84 279.56 L261.69 281.09 L260.70 280.82 L259.55 280.97 L259.03 280.73 L258.08 280.92 L256.86 281.12 L255.56 281.63 L255.09 281.12 L254.14 281.05 L252.50 280.61 L252.02 280.20 L250.31 280.56 L249.82 280.02 L249.00 280.53 L246.96 280.65 L246.29 279.50 L244.67 279.72 L245.07 280.76 L244.03 282.53 L243.49 282.41 L242.62 281.20 L241.39 282.65 L240.41 281.79 L238.99 281.78 L238.24 282.34 L238.17 281.26 L237.47 280.81 L235.58 283.18 L234.70 283.71 L234.06 284.48 L233.86 283.83 L233.05 283.21 L232.17 282.03 L231.09 282.52 L230.48 283.38 L229.12 283.02 L227.80 283.61 L227.34 282.61 L226.46 282.78 L227.54 280.68 L225.64 279.76 L225.69 278.66 L225.11 277.62 L225.56 277.30 L224.26 275.94 L223.60 275.63 L221.46 275.68 L221.28 274.26 L220.40 274.36 L218.92 273.63 L218.12 272.92 L217.43 271.57 L217.82 270.55 L217.88 268.92 L218.51 268.33 L217.65 266.43 L216.57 265.87 L215.31 264.54 L214.80 263.71 L214.72 262.16 L212.89 260.62 L211.37 258.64 L211.43 257.05 L210.99 255.32 L209.19 254.80 L208.64 253.77 L206.98 254.01 L207.35 255.06 L208.08 255.37 L208.09 256.03 L206.90 256.19 L206.10 255.98 L204.93 256.08 L203.08 256.87 L202.89 257.41 L200.59 256.47 L199.26 257.36 L198.82 257.02 L198.49 255.34 L198.72 254.12 L198.42 253.20 L198.76 252.05 L198.41 251.59 L197.57 251.94 L196.73 250.78 L195.53 251.62 L194.45 250.78 L195.30 249.84 L194.68 248.76 L193.89 249.27 L193.19 249.06 L193.23 248.42 L191.33 248.31 L190.61 246.44 L191.01 245.22 L190.59 244.87 L191.20 243.77 L191.06 242.51 L191.40 240.79 L192.64 238.51 L193.59 237.90 L193.66 237.10 L194.73 236.25 L194.25 235.94 L194.24 235.07 L194.80 234.16 L194.67 232.84 L195.57 230.90 L195.91 230.51 L196.06 229.32 L195.32 228.51 L195.75 227.27 L196.37 226.92 L196.23 225.48 L197.16 225.30 L197.76 226.00 L199.20 226.21 L199.73 226.85 L200.97 227.37 L201.74 226.89 L201.56 226.16 L200.53 224.64 L201.54 223.94 L202.42 225.03 L203.25 224.96 L203.46 224.04 L204.80 223.76 L205.38 223.28 L206.27 223.20 L206.76 222.52 L207.55 222.63 L208.51 221.96 L208.50 221.41 L207.42 220.55 L208.41 219.80 L208.70 218.89 L209.67 218.52 L212.02 216.44 L212.67 215.14 L213.61 214.51 L213.06 212.06 L213.80 211.14 L214.71 211.13 L214.97 209.99 L215.87 209.67 L215.62 208.36 L215.02 207.38 L215.45 207.03 L215.72 205.87 L214.34 205.09 L214.46 203.46 L215.79 203.40 L215.74 201.95 L216.10 200.49 L218.05 200.42 L217.98 199.76 L216.40 198.90 L215.60 198.89 L214.35 197.58 L215.39 196.63 L214.03 194.37 L214.29 193.17 L213.43 191.47 L213.96 190.58 L215.02 190.15 L217.09 189.80 L217.90 189.15 L219.17 187.59 L219.02 186.97 L219.48 185.67 L218.75 184.08 L219.41 183.76 L219.34 182.72 L219.74 181.74 L218.33 181.09 L218.85 180.47 L217.33 179.43 L216.58 179.36 L216.00 178.84 L215.91 177.85 L214.99 177.30 L215.28 176.61 L214.89 174.69 L215.30 174.18 L216.40 173.88 L216.87 172.50 L217.69 172.74 L219.38 172.44 L219.57 172.01 L221.25 171.89 L222.69 170.51 L223.86 170.90 L224.59 170.61 L224.68 168.94 L225.66 169.11 L225.90 169.88 L226.70 169.74 L228.66 169.88 L229.43 170.47 L230.39 169.98 L231.00 170.30 L232.84 168.81 L232.24 167.62 L232.36 166.75 L233.87 165.45 L235.33 165.00 L235.85 163.67 L235.11 162.38 L235.53 161.74 L236.81 161.57 L237.00 162.22 L238.00 162.50 L237.99 163.24 L238.66 164.43 L238.24 164.90 L239.37 165.75 L239.23 166.26 L239.67 167.69 L239.18 168.87 L239.56 169.69 L240.80 170.93 L239.30 173.16 L240.33 173.76 L240.05 175.07 L241.60 176.24 L242.07 177.42 L243.62 177.39 L243.21 178.81 L243.44 179.14 L245.23 179.56 L245.93 180.31 L245.56 181.57 L245.60 182.46 L246.44 184.23 L247.36 184.47 L247.77 185.34 L248.63 185.80 L249.73 185.79 L250.24 184.95 L250.83 186.50 L250.36 187.10 L251.97 187.75 L251.87 188.25 L252.30 189.54 L251.76 190.61 L252.08 191.63 L251.42 192.10 L251.93 193.13 L252.53 193.16 L254.12 193.17 L254.40 192.74 L255.32 192.83 L257.69 192.30 L258.49 191.96 L259.18 190.38 L259.87 190.77 L260.32 191.73 L262.15 192.12 L262.70 191.04 L263.18 190.93 L264.32 192.06 L265.57 191.52 L266.16 192.58 L266.25 194.42 L267.16 194.92 L267.69 194.66 L268.90 196.07 L269.42 197.56 L268.98 198.15 L268.88 199.40 L268.14 199.01 L267.41 200.33 L268.37 200.82 L269.37 200.79 L269.88 200.17 L270.93 200.14 L271.96 200.59 L273.14 200.24 L273.90 201.03 L275.27 200.91 L275.72 200.33 L276.82 199.91 L276.39 199.24 L278.22 198.83 L278.18 200.15 L278.92 200.68 L280.43 199.40 L282.60 199.06 L283.72 199.62 L284.35 199.59 L285.58 200.51 L286.23 202.63 L286.25 203.42 L287.46 204.30 L287.96 206.22 L288.61 206.58 L288.74 208.25 L287.14 210.14 L286.70 210.18 L284.87 211.86 L284.81 213.35 L285.56 213.68 L285.59 214.72 L285.04 214.76 L285.53 216.36 L285.40 217.03 L284.26 217.06 L283.19 217.55 L283.03 218.01 L281.91 217.85 L280.06 218.25 L279.81 219.91 L280.14 220.60 L281.82 221.54 L282.03 222.57 L283.18 223.71 L282.60 224.14 L282.73 225.71 L283.43 226.97 L283.89 227.32 L283.32 227.89 L281.90 227.49 L281.15 228.10 L280.09 228.11 L279.82 228.83 L280.64 229.64 Z"/>
<path class="france-region" data-name="Bourgogne-Franche-Comté" d="M304.73 265.81 L303.01 265.81 L303.72 267.00 L303.06 267.42 L302.20 267.38 L302.51 268.61 L302.08 269.13 L301.36 268.77 L300.23 269.97 L299.17 270.33 L298.91 269.81 L299.12 268.85 L298.46 268.42 L298.49 267.56 L297.01 267.43 L296.33 268.52 L295.70 268.84 L294.66 268.64 L294.24 267.36 L293.25 267.34 L291.52 268.91 L290.93 269.05 L289.84 268.42 L288.78 266.85 L287.32 266.36 L286.20 265.41 L285.66 263.69 L286.53 262.19 L286.86 260.98 L286.81 259.83 L286.24 258.29 L287.17 256.21 L286.64 254.78 L287.06 253.22 L286.64 251.99 L285.38 251.18 L285.64 249.78 L285.53 248.07 L284.93 245.68 L284.05 243.70 L284.11 241.93 L282.65 240.61 L281.69 239.52 L280.71 239.01 L280.60 237.76 L282.07 234.98 L282.44 233.36 L281.53 231.61 L281.08 230.16 L280.64 229.64 L279.82 228.83 L280.09 228.11 L281.15 228.10 L281.90 227.49 L283.32 227.89 L283.89 227.32 L283.43 226.97 L282.73 225.71 L282.60 224.14 L283.18 223.71 L282.03 222.57 L281.82 221.54 L280.14 220.60 L279.81 219.91 L280.06 218.25 L281.91 217.85 L283.03 218.01 L283.19 217.55 L284.26 217.06 L285.40 217.03 L285.53 216.36 L285.04 214.76 L285.59 214.72 L285.56 213.68 L284.81 213.35 L284.87 211.86 L286.70 210.18 L287.14 210.14 L288.74 208.25 L288.61 206.58 L287.96 206.22 L287.46 204.30 L286.25 203.42 L286.23 202.63 L285.58 200.51 L284.35 199.59 L283.72 199.62 L282.60 199.06 L282.55 198.33 L283.71 197.59 L283.82 197.05 L284.80 196.94 L286.03 193.86 L285.15 192.14 L285.97 191.11 L285.81 190.59 L286.22 189.63 L287.79 189.74 L289.10 189.03 L291.08 189.45 L292.07 189.14 L292.76 189.40 L293.65 188.80 L294.38 189.02 L296.29 189.05 L296.36 187.99 L296.87 187.73 L297.88 188.18 L298.28 189.64 L299.08 188.95 L300.55 189.22 L301.63 190.57 L302.62 191.49 L302.72 192.16 L303.40 192.48 L303.38 193.47 L304.32 193.89 L304.56 194.70 L303.79 195.54 L304.48 196.08 L304.14 196.74 L303.00 197.85 L303.60 198.32 L304.41 197.75 L305.11 198.08 L305.95 200.22 L307.14 199.98 L308.26 198.76 L308.73 199.69 L308.25 200.53 L309.32 200.68 L310.33 201.97 L310.39 202.87 L310.96 203.95 L310.95 204.82 L312.42 206.12 L311.44 206.68 L311.77 207.64 L312.67 207.85 L313.37 206.97 L313.83 208.03 L313.41 209.80 L314.90 210.16 L316.11 210.18 L316.68 209.63 L317.13 210.28 L318.00 210.40 L318.51 209.47 L319.52 209.59 L320.12 210.35 L321.86 208.79 L323.19 209.42 L323.15 208.20 L323.85 208.34 L323.64 209.27 L324.30 210.11 L325.03 210.49 L325.92 210.41 L326.42 208.72 L327.77 208.94 L329.78 208.39 L330.88 208.91 L332.30 208.36 L333.09 208.46 L334.43 208.23 L333.66 206.81 L335.15 205.46 L336.24 205.37 L338.04 206.15 L339.03 205.91 L339.53 206.45 L340.47 206.67 L341.74 206.50 L341.92 207.67 L341.61 208.35 L342.44 208.81 L343.53 208.72 L344.20 209.71 L343.01 210.92 L343.91 211.83 L344.52 210.67 L345.34 210.62 L346.18 212.26 L346.18 213.01 L347.01 213.22 L347.46 214.87 L348.28 215.46 L348.06 216.23 L345.86 217.47 L346.26 218.23 L346.86 218.05 L347.57 219.70 L347.00 220.81 L347.19 221.28 L348.22 221.69 L349.43 220.69 L349.86 222.25 L351.18 223.16 L352.56 223.62 L354.16 222.04 L354.01 223.39 L355.22 223.89 L356.11 225.11 L356.09 226.00 L356.54 226.97 L358.04 225.64 L359.32 225.45 L359.80 226.29 L360.41 225.66 L360.38 225.01 L361.42 223.66 L361.44 222.40 L362.71 222.52 L363.87 221.87 L365.38 222.43 L366.57 220.89 L367.14 221.15 L367.51 222.48 L369.32 222.21 L370.50 221.86 L370.31 220.57 L370.60 219.36 L371.11 219.00 L370.97 217.86 L370.17 217.82 L370.24 216.09 L370.81 215.26 L371.85 215.56 L372.28 215.27 L372.22 214.08 L372.76 213.57 L374.18 214.14 L375.64 211.35 L376.24 211.60 L376.90 211.12 L376.71 210.40 L377.20 209.50 L377.77 209.38 L377.78 208.51 L378.37 207.88 L379.09 208.50 L378.40 209.21 L378.91 209.87 L379.45 208.91 L380.21 208.88 L381.14 207.91 L381.70 206.66 L384.58 205.72 L385.37 206.56 L385.25 207.10 L385.75 209.14 L386.56 209.10 L387.04 209.75 L387.98 210.07 L389.24 209.07 L390.74 209.29 L392.07 208.68 L394.17 209.55 L394.94 211.31 L395.59 212.05 L397.69 211.51 L398.37 210.14 L399.77 209.58 L400.85 210.88 L400.93 211.40 L402.85 212.52 L403.93 213.46 L405.44 214.03 L405.67 214.96 L406.67 215.77 L407.39 215.30 L407.47 216.30 L407.91 217.04 L409.88 217.79 L410.40 217.74 L411.38 218.64 L412.68 219.16 L413.50 220.11 L413.15 221.09 L413.78 222.49 L412.91 223.48 L412.46 224.96 L413.11 226.22 L414.37 225.83 L415.06 226.23 L415.69 228.18 L416.64 228.88 L416.46 230.46 L415.85 230.85 L414.43 230.91 L413.08 230.41 L411.85 231.01 L412.27 232.86 L411.35 233.11 L410.41 233.75 L410.34 235.04 L409.67 235.06 L409.47 236.00 L408.65 236.52 L408.45 237.29 L409.73 237.43 L412.12 237.07 L412.69 236.60 L413.89 237.18 L414.29 237.96 L413.78 238.77 L412.82 239.40 L412.08 240.25 L410.48 240.61 L410.87 242.66 L410.41 243.24 L408.55 244.66 L407.78 246.41 L405.93 248.08 L404.76 248.50 L404.00 249.05 L404.04 249.85 L403.30 249.95 L402.46 250.99 L403.18 251.81 L402.72 252.29 L401.50 252.79 L400.61 254.19 L399.32 254.50 L398.47 255.02 L396.95 255.48 L396.24 255.32 L394.64 257.19 L394.20 257.45 L395.21 259.25 L395.07 261.05 L394.51 261.95 L394.26 263.39 L395.02 263.99 L393.98 265.56 L393.00 265.87 L392.89 266.33 L391.39 267.56 L389.49 268.52 L387.66 270.52 L385.99 272.11 L384.45 273.21 L383.92 273.86 L384.79 274.73 L385.38 275.30 L383.98 276.96 L383.48 278.28 L382.75 279.08 L383.13 280.14 L382.43 281.29 L381.33 282.65 L379.86 283.78 L378.52 286.23 L377.77 286.24 L377.48 287.40 L377.02 287.28 L376.50 288.08 L375.59 288.41 L372.91 288.13 L371.62 288.48 L371.29 287.50 L371.28 286.26 L370.32 286.16 L369.20 284.84 L368.18 285.32 L367.54 286.79 L366.55 286.94 L365.77 288.04 L365.08 288.32 L363.57 288.27 L363.05 287.84 L363.64 285.97 L363.37 285.59 L362.44 285.96 L362.06 284.86 L361.30 284.86 L360.39 284.25 L360.46 282.95 L359.37 281.95 L358.01 281.45 L358.67 280.61 L358.38 279.87 L356.63 279.63 L355.33 278.87 L354.89 277.02 L353.98 276.78 L352.85 276.97 L351.90 277.78 L350.27 278.15 L349.36 277.70 L348.61 276.92 L346.41 276.75 L345.78 277.92 L345.78 279.01 L345.02 280.19 L344.90 281.90 L343.73 284.06 L343.77 285.36 L343.10 286.81 L342.92 287.83 L342.44 288.51 L342.33 289.57 L341.91 290.43 L341.46 292.35 L340.73 292.56 L339.87 292.27 L339.56 291.56 L340.02 290.78 L339.55 290.24 L340.04 289.70 L338.24 288.57 L339.14 287.37 L338.54 286.60 L337.45 286.50 L336.25 287.56 L336.30 288.29 L335.27 288.11 L334.36 286.91 L333.70 288.05 L332.64 288.18 L332.14 287.22 L331.18 286.80 L329.51 286.84 L329.07 288.37 L328.94 290.36 L328.11 291.48 L326.63 292.57 L325.88 292.55 L325.55 293.28 L324.76 293.25 L324.77 291.98 L323.73 292.29 L323.19 291.52 L322.44 291.83 L322.57 292.42 L320.81 292.32 L319.88 291.35 L318.21 292.12 L317.53 292.67 L315.97 292.37 L315.68 291.15 L313.80 290.96 L313.05 290.61 L313.66 288.61 L313.35 287.77 L313.80 286.82 L314.89 286.50 L314.96 285.71 L316.13 285.77 L316.29 283.44 L315.83 282.07 L316.43 280.77 L316.18 280.40 L316.49 279.01 L315.21 277.88 L313.97 277.59 L313.06 278.27 L312.14 277.77 L312.23 276.95 L311.44 276.59 L311.26 275.96 L310.23 276.48 L309.13 275.60 L308.31 275.57 L307.99 275.11 L308.35 274.37 L308.01 272.54 L307.42 272.11 L307.37 271.20 L306.88 269.95 L305.99 269.35 L305.43 267.98 L305.00 267.78 L304.73 265.81 Z"/>
<path class="france-region" data-name="Normandie" d="M153.15 141.34 L154.48 139.73 L156.01 139.67 L157.33 139.29 L158.91 139.41 L160.95 140.66 L162.55 141.24 L165.84 141.76 L168.21 141.81 L169.78 142.11 L171.23 141.81 L172.44 141.86 L174.46 142.32 L175.65 142.32 L177.37 142.94 L179.23 144.14 L181.69 144.95 L183.47 144.74 L185.84 144.15 L188.87 142.81 L191.25 140.87 L192.41 139.44 L193.03 139.02 L194.50 138.56 L195.91 137.85 L198.37 137.70 L199.71 137.15 L199.72 136.72 L197.61 136.54 L197.08 136.89 L195.84 136.56 L195.03 136.64 L192.76 136.06 L191.77 135.12 L191.66 134.18 L191.11 133.94 L191.28 132.47 L192.30 130.15 L193.22 128.42 L193.82 126.94 L194.13 125.07 L195.00 124.09 L196.89 123.26 L197.93 122.60 L199.12 122.36 L200.22 121.69 L200.55 121.16 L202.72 120.05 L205.57 118.25 L207.17 117.01 L209.38 116.29 L211.43 115.89 L211.80 116.01 L214.13 115.72 L215.46 115.03 L216.80 114.78 L218.56 114.18 L219.63 113.53 L221.44 113.72 L224.19 112.69 L227.38 110.87 L228.67 109.79 L231.41 107.21 L232.98 106.29 L233.87 106.72 L234.32 106.03 L235.46 106.45 L235.24 107.56 L236.55 108.67 L237.29 108.98 L237.62 109.73 L239.12 110.85 L239.76 112.08 L242.46 113.62 L242.93 114.73 L243.47 115.04 L244.34 119.06 L245.00 120.41 L245.82 121.53 L244.47 121.86 L244.60 122.50 L243.77 122.90 L243.64 123.98 L242.81 124.66 L243.29 125.35 L244.23 124.44 L244.81 125.34 L243.95 125.75 L243.43 127.05 L243.84 128.25 L243.33 129.03 L243.62 130.50 L244.10 131.24 L244.01 132.21 L244.67 132.40 L243.76 133.85 L244.77 134.48 L245.44 133.62 L246.03 134.08 L245.51 134.93 L245.57 135.66 L244.66 136.25 L243.88 137.50 L243.59 138.71 L243.79 139.42 L245.04 140.72 L245.51 142.36 L245.31 143.09 L245.56 144.09 L246.42 145.44 L246.00 146.61 L245.20 145.87 L244.25 145.58 L243.48 145.80 L243.29 147.38 L242.32 148.45 L242.01 151.23 L241.73 152.36 L241.07 153.13 L240.24 154.91 L240.01 154.59 L238.58 155.31 L237.98 155.18 L236.28 156.19 L235.51 155.65 L235.09 156.50 L235.41 157.42 L236.03 157.88 L236.03 159.73 L236.68 159.70 L236.81 161.57 L235.53 161.74 L235.11 162.38 L235.85 163.67 L235.33 165.00 L233.87 165.45 L232.36 166.75 L232.24 167.62 L232.84 168.81 L231.00 170.30 L230.39 169.98 L229.43 170.47 L228.66 169.88 L226.70 169.74 L225.90 169.88 L225.66 169.11 L224.68 168.94 L224.59 170.61 L223.86 170.90 L222.69 170.51 L221.25 171.89 L219.57 172.01 L219.38 172.44 L217.69 172.74 L216.87 172.50 L216.40 173.88 L215.30 174.18 L214.89 174.69 L215.28 176.61 L214.99 177.30 L215.91 177.85 L216.00 178.84 L216.58 179.36 L217.33 179.43 L218.85 180.47 L218.33 181.09 L219.74 181.74 L219.34 182.72 L219.41 183.76 L218.75 184.08 L219.48 185.67 L219.02 186.97 L219.17 187.59 L217.90 189.15 L217.09 189.80 L215.02 190.15 L213.96 190.58 L213.43 191.47 L214.29 193.17 L214.03 194.37 L215.39 196.63 L214.35 197.58 L213.28 198.19 L211.98 197.40 L211.09 195.57 L210.45 194.69 L209.73 194.26 L208.79 195.14 L207.37 195.19 L205.99 194.92 L205.81 194.17 L204.67 193.15 L204.45 192.14 L202.65 192.20 L201.85 191.82 L201.10 190.90 L201.12 189.88 L200.75 187.21 L201.07 186.51 L200.24 184.92 L198.47 183.84 L195.85 184.17 L194.95 184.74 L194.38 184.60 L193.72 185.93 L192.60 186.01 L192.05 187.22 L191.08 187.40 L190.88 188.53 L189.56 188.67 L189.00 187.91 L187.46 188.69 L187.15 188.58 L187.06 186.35 L187.23 185.15 L185.49 185.43 L184.30 185.08 L183.58 182.15 L184.27 181.57 L183.48 181.12 L182.28 179.87 L181.41 179.90 L180.53 180.60 L181.18 181.12 L180.50 181.77 L180.22 182.55 L178.67 181.80 L178.09 182.88 L177.16 183.24 L174.72 182.24 L173.63 182.83 L172.77 182.63 L171.96 183.14 L171.33 184.15 L169.78 184.30 L168.11 185.60 L167.62 183.58 L166.48 184.48 L165.58 184.22 L165.40 184.78 L166.06 185.36 L164.72 185.96 L164.00 185.50 L164.06 184.57 L163.43 184.58 L161.43 182.83 L160.30 183.15 L159.45 182.31 L158.36 182.10 L157.86 183.16 L156.84 183.43 L155.04 182.17 L154.73 182.50 L152.81 181.86 L152.28 182.06 L151.51 181.41 L150.96 181.52 L150.38 180.87 L148.28 181.27 L148.06 182.46 L146.48 183.09 L145.97 184.20 L144.76 184.98 L143.28 184.71 L142.63 183.57 L141.33 183.42 L141.15 182.48 L140.39 180.98 L139.95 180.59 L140.41 179.69 L139.64 179.03 L139.75 178.09 L138.75 176.81 L139.62 176.58 L140.51 177.20 L141.74 177.18 L142.81 176.75 L144.42 175.64 L141.47 173.91 L140.75 173.68 L139.99 171.75 L139.09 171.54 L138.64 170.74 L138.81 168.28 L138.64 167.36 L137.67 166.57 L138.23 166.16 L138.58 165.20 L138.79 163.61 L139.37 163.16 L139.63 162.05 L139.03 161.57 L139.08 158.63 L138.02 157.61 L137.52 154.84 L137.60 153.34 L137.99 152.27 L137.59 149.12 L138.16 147.32 L137.28 147.41 L136.81 148.26 L136.09 146.93 L135.75 145.75 L134.27 142.83 L133.86 142.74 L132.56 140.95 L131.21 140.54 L130.68 139.09 L130.58 136.57 L130.02 135.68 L129.76 133.74 L128.82 133.30 L128.70 132.27 L129.59 131.72 L130.13 130.73 L130.00 128.39 L129.51 126.86 L128.38 126.13 L126.77 125.67 L127.08 124.71 L126.74 124.16 L126.90 123.14 L127.72 123.18 L128.79 124.12 L129.56 123.63 L130.18 123.83 L130.71 124.88 L132.25 125.35 L134.06 125.40 L135.05 125.73 L135.51 126.49 L136.77 126.35 L137.03 127.05 L140.37 126.51 L141.47 125.92 L141.94 124.57 L142.43 124.83 L143.53 124.22 L145.21 124.08 L147.40 124.72 L148.42 124.64 L148.32 125.41 L149.34 126.75 L149.66 128.91 L148.86 128.71 L148.47 129.69 L147.52 130.16 L147.10 131.67 L147.19 132.34 L148.91 135.21 L150.83 137.58 L151.61 138.77 L151.81 139.57 L151.27 140.22 L151.74 140.80 L153.15 141.34 Z"/>
<path class="france-region" data-name="Hauts-de-France" d="M318.09 138.89 L317.83 139.29 L317.69 141.13 L316.96 141.21 L316.39 140.25 L315.32 140.27 L314.17 138.79 L313.30 139.49 L312.24 138.90 L311.37 139.38 L311.97 140.09 L311.70 140.93 L310.89 141.27 L309.45 141.33 L308.33 142.27 L306.95 142.50 L305.19 143.44 L305.62 144.50 L305.55 145.88 L306.05 147.02 L305.78 148.51 L306.89 148.68 L307.12 149.86 L307.79 150.25 L308.61 150.04 L308.54 151.05 L307.03 151.73 L306.46 151.17 L305.49 151.46 L304.50 151.34 L304.12 152.10 L304.16 152.95 L305.03 154.74 L303.39 155.81 L303.39 157.06 L305.31 156.69 L305.83 156.89 L306.28 157.88 L305.87 158.43 L305.02 158.59 L304.45 160.36 L303.52 160.63 L303.85 161.37 L302.97 161.67 L302.95 162.52 L301.51 162.97 L300.86 164.03 L300.12 165.90 L299.34 166.50 L299.07 165.68 L297.55 165.31 L296.78 164.79 L296.86 164.11 L296.33 162.45 L295.18 163.14 L294.63 162.53 L294.36 161.19 L293.19 161.70 L292.68 160.05 L291.95 159.26 L290.01 157.89 L290.44 155.74 L289.54 154.65 L289.91 153.85 L288.98 153.47 L287.95 153.45 L286.93 152.98 L286.18 154.50 L284.91 154.25 L283.83 155.06 L281.49 154.54 L281.28 154.95 L280.04 155.29 L279.70 154.58 L277.99 154.31 L277.84 155.04 L276.77 155.74 L275.28 155.50 L274.21 154.28 L272.93 153.42 L271.57 154.82 L270.54 153.91 L268.36 153.52 L268.78 152.97 L267.77 152.10 L265.91 151.28 L265.21 151.42 L263.77 150.82 L262.64 149.62 L261.86 150.91 L260.78 151.25 L259.70 149.90 L258.53 150.24 L256.96 149.37 L255.81 149.45 L255.11 148.53 L252.74 150.14 L251.88 149.74 L251.47 150.25 L250.53 150.21 L249.06 150.78 L248.80 150.35 L247.79 150.42 L246.19 149.67 L244.91 150.20 L244.49 149.92 L244.23 147.91 L243.29 147.38 L243.48 145.80 L244.25 145.58 L245.20 145.87 L246.00 146.61 L246.42 145.44 L245.56 144.09 L245.31 143.09 L245.51 142.36 L245.04 140.72 L243.79 139.42 L243.59 138.71 L243.88 137.50 L244.66 136.25 L245.57 135.66 L245.51 134.93 L246.03 134.08 L245.44 133.62 L244.77 134.48 L243.76 133.85 L244.67 132.40 L244.01 132.21 L244.10 131.24 L243.62 130.50 L243.33 129.03 L243.84 128.25 L243.43 127.05 L243.95 125.75 L244.81 125.34 L244.23 124.44 L243.29 125.35 L242.81 124.66 L243.64 123.98 L243.77 122.90 L244.60 122.50 L244.47 121.86 L245.82 121.53 L245.00 120.41 L244.34 119.06 L243.47 115.04 L242.93 114.73 L242.46 113.62 L239.76 112.08 L239.12 110.85 L237.62 109.73 L237.29 108.98 L236.55 108.67 L235.24 107.56 L235.46 106.45 L234.32 106.03 L233.87 106.72 L232.98 106.29 L235.29 104.07 L236.21 100.98 L237.16 99.52 L238.31 98.84 L239.83 100.33 L240.83 100.10 L242.30 100.87 L242.63 100.45 L241.95 98.93 L240.67 98.85 L239.75 97.39 L239.71 96.79 L238.34 96.59 L237.97 95.48 L238.39 92.10 L239.04 91.69 L240.37 91.60 L241.28 92.01 L240.76 91.02 L239.30 90.65 L238.54 89.73 L239.00 87.38 L239.23 83.77 L239.49 82.72 L240.57 82.83 L239.36 81.45 L239.21 80.97 L239.17 77.37 L238.70 74.56 L239.77 72.78 L240.10 71.37 L240.13 69.85 L239.25 66.80 L239.43 65.87 L241.30 65.51 L242.10 64.83 L242.91 63.66 L244.07 62.52 L245.72 61.66 L247.37 61.25 L248.61 60.65 L249.20 60.78 L250.03 60.18 L254.17 59.46 L254.88 59.05 L256.24 59.11 L257.15 58.34 L258.79 58.46 L258.84 57.61 L259.70 57.74 L260.99 57.17 L263.64 56.47 L265.34 56.82 L266.28 56.55 L270.16 54.89 L270.69 56.10 L271.10 58.68 L271.04 59.20 L272.13 60.03 L272.91 62.11 L271.55 63.48 L272.11 63.81 L272.20 66.36 L272.99 68.85 L275.64 68.83 L276.26 70.37 L277.68 71.97 L277.83 72.84 L278.68 73.69 L279.80 73.39 L280.49 74.39 L281.39 74.83 L282.16 74.40 L282.64 72.42 L283.67 72.04 L285.34 70.91 L286.60 70.48 L287.47 70.84 L288.18 69.79 L289.49 70.39 L290.99 72.79 L291.40 73.87 L292.45 73.88 L292.88 74.51 L293.01 75.63 L292.33 76.67 L292.78 78.44 L293.26 79.03 L293.63 80.72 L293.45 81.66 L293.78 83.21 L296.21 84.44 L296.65 85.05 L298.43 84.24 L299.76 82.91 L301.22 83.45 L300.48 84.66 L301.31 84.85 L302.78 84.55 L303.32 85.07 L304.01 84.73 L305.18 86.44 L305.84 86.95 L306.14 90.13 L305.65 91.05 L306.14 92.87 L307.31 94.45 L307.99 94.00 L308.14 92.45 L308.49 92.07 L311.85 92.03 L313.04 93.11 L313.65 93.19 L315.53 92.09 L316.36 92.18 L317.43 91.74 L317.75 92.47 L320.45 94.70 L320.52 95.93 L323.18 95.96 L323.63 96.76 L322.60 97.76 L321.66 99.48 L321.32 100.86 L321.47 101.53 L320.60 102.84 L322.84 102.83 L322.86 104.13 L323.82 105.60 L323.51 106.53 L322.10 107.29 L321.73 107.12 L320.91 108.54 L321.59 110.14 L321.05 110.61 L322.06 110.69 L322.84 111.16 L322.81 111.75 L324.00 111.65 L323.49 113.78 L324.71 114.36 L324.49 116.66 L323.69 117.78 L323.39 119.16 L323.79 119.81 L323.18 120.40 L324.16 121.08 L324.43 121.70 L323.83 122.25 L323.73 123.06 L322.66 123.60 L322.45 124.46 L321.16 124.97 L320.61 125.49 L320.53 126.89 L319.61 127.90 L318.61 127.51 L317.89 127.87 L317.56 128.63 L319.00 130.76 L318.41 131.67 L318.98 132.30 L319.02 133.02 L317.85 133.83 L317.91 135.79 L318.39 136.65 L317.76 137.29 L318.09 138.89 Z"/>
<path class="france-region" data-name="Grand Est" d="M324.00 111.65 L326.39 111.07 L327.72 111.93 L328.65 111.88 L330.82 112.66 L331.93 112.14 L332.84 112.20 L333.81 111.15 L334.86 110.53 L338.09 109.72 L338.87 106.88 L338.34 106.14 L338.96 104.81 L340.53 104.00 L340.88 102.77 L342.86 101.56 L343.11 101.90 L344.63 101.99 L345.12 102.86 L344.35 103.38 L344.27 104.70 L343.72 104.52 L343.02 107.17 L343.38 107.69 L342.63 108.78 L342.69 109.80 L341.77 111.04 L341.80 111.62 L343.69 112.21 L343.94 112.88 L344.94 114.03 L343.74 116.45 L344.24 117.48 L344.23 118.76 L343.85 119.84 L346.27 120.12 L347.07 119.40 L348.43 119.50 L348.76 120.36 L350.49 121.35 L351.35 121.19 L352.14 122.36 L352.48 123.69 L353.76 124.05 L353.78 124.75 L355.14 124.67 L356.25 125.11 L357.00 124.58 L359.07 126.64 L358.32 127.57 L358.42 128.67 L359.42 128.02 L361.03 128.49 L362.23 129.69 L362.58 131.75 L363.31 132.34 L362.76 133.40 L363.50 134.39 L365.74 133.50 L366.22 132.82 L367.41 133.18 L368.13 132.92 L368.79 132.04 L369.64 131.66 L370.85 132.31 L371.85 132.07 L373.19 131.16 L373.81 131.73 L375.18 132.17 L375.16 133.28 L376.21 134.31 L376.98 134.41 L378.47 134.21 L379.49 134.68 L379.83 136.66 L381.27 136.44 L382.16 135.96 L382.83 136.04 L384.33 135.56 L385.34 134.07 L388.57 133.76 L389.29 134.09 L389.85 135.23 L390.36 135.22 L392.02 136.24 L393.40 135.85 L393.76 135.49 L395.39 136.08 L398.08 138.26 L397.64 139.11 L398.36 139.74 L399.12 139.90 L398.53 141.86 L399.40 142.58 L399.18 142.98 L400.10 143.96 L400.77 144.28 L401.46 145.97 L402.24 146.88 L402.56 148.17 L403.36 147.91 L403.73 148.65 L403.09 149.51 L403.96 150.73 L405.43 150.51 L407.02 151.32 L407.86 149.99 L407.56 148.93 L407.05 148.40 L407.75 147.86 L408.64 148.41 L410.24 147.87 L411.00 148.81 L411.49 148.47 L412.26 149.23 L413.40 149.46 L413.19 150.41 L413.78 151.95 L414.04 153.22 L415.58 151.86 L417.31 152.79 L418.17 152.33 L418.90 152.69 L420.13 152.38 L421.32 153.01 L421.83 152.98 L422.83 151.64 L423.88 151.63 L423.99 150.30 L426.51 149.72 L426.83 150.60 L428.07 150.43 L428.01 151.79 L428.75 152.80 L429.19 153.97 L430.46 154.82 L431.45 154.64 L432.44 155.28 L432.58 156.07 L433.83 156.51 L434.88 156.07 L435.67 156.54 L436.86 156.38 L437.66 155.50 L440.03 157.04 L440.76 156.38 L441.56 156.71 L442.13 155.89 L443.04 156.61 L443.58 157.43 L444.11 157.32 L445.79 158.01 L447.14 159.22 L448.68 159.75 L451.33 159.87 L451.65 160.31 L450.47 160.83 L448.66 163.91 L448.20 164.98 L447.29 167.91 L446.10 168.95 L445.15 169.07 L444.95 169.94 L444.38 170.41 L443.25 170.57 L443.04 172.22 L440.74 175.04 L439.11 176.09 L438.75 177.23 L437.97 178.45 L437.84 179.11 L438.06 181.89 L437.67 182.80 L436.82 183.40 L436.72 184.99 L435.79 187.52 L435.67 188.90 L436.08 190.81 L435.71 191.67 L434.75 192.10 L433.62 196.17 L432.92 196.88 L432.36 198.16 L431.49 199.30 L431.36 200.51 L430.73 201.12 L430.81 201.81 L430.47 202.98 L430.55 205.42 L431.63 206.69 L432.16 208.19 L430.92 210.15 L430.93 211.56 L430.07 212.59 L430.29 213.91 L429.26 217.02 L429.29 217.91 L429.80 219.26 L429.65 220.10 L428.70 221.00 L428.97 222.92 L430.38 224.32 L431.20 226.10 L430.96 226.95 L428.46 228.51 L429.07 229.67 L428.50 229.89 L428.48 230.81 L427.84 231.47 L426.17 230.70 L425.79 231.34 L426.67 231.77 L425.72 233.18 L424.46 233.82 L423.08 233.39 L421.29 233.71 L420.16 234.28 L419.73 233.49 L418.90 233.68 L417.76 233.23 L418.26 231.02 L417.38 231.04 L416.46 230.46 L416.64 228.88 L415.69 228.18 L415.06 226.23 L414.37 225.83 L413.11 226.22 L412.46 224.96 L412.91 223.48 L413.78 222.49 L413.15 221.09 L413.50 220.11 L412.68 219.16 L411.38 218.64 L410.40 217.74 L409.88 217.79 L407.91 217.04 L407.47 216.30 L407.39 215.30 L406.67 215.77 L405.67 214.96 L405.44 214.03 L403.93 213.46 L402.85 212.52 L400.93 211.40 L400.85 210.88 L399.77 209.58 L398.37 210.14 L397.69 211.51 L395.59 212.05 L394.94 211.31 L394.17 209.55 L392.07 208.68 L390.74 209.29 L389.24 209.07 L387.98 210.07 L387.04 209.75 L386.56 209.10 L385.75 209.14 L385.25 207.10 L385.37 206.56 L384.58 205.72 L381.70 206.66 L381.14 207.91 L380.21 208.88 L379.45 208.91 L378.91 209.87 L378.40 209.21 L379.09 208.50 L378.37 207.88 L377.78 208.51 L377.77 209.38 L377.20 209.50 L376.71 210.40 L376.90 211.12 L376.24 211.60 L375.64 211.35 L374.18 214.14 L372.76 213.57 L372.22 214.08 L372.28 215.27 L371.85 215.56 L370.81 215.26 L370.24 216.09 L370.17 217.82 L370.97 217.86 L371.11 219.00 L370.60 219.36 L370.31 220.57 L370.50 221.86 L369.32 222.21 L367.51 222.48 L367.14 221.15 L366.57 220.89 L365.38 222.43 L363.87 221.87 L362.71 222.52 L361.44 222.40 L361.42 223.66 L360.38 225.01 L360.41 225.66 L359.80 226.29 L359.32 225.45 L358.04 225.64 L356.54 226.97 L356.09 226.00 L356.11 225.11 L355.22 223.89 L354.01 223.39 L354.16 222.04 L352.56 223.62 L351.18 223.16 L349.86 222.25 L349.43 220.69 L348.22 221.69 L347.19 221.28 L347.00 220.81 L347.57 219.70 L346.86 218.05 L346.26 218.23 L345.86 217.47 L348.06 216.23 L348.28 215.46 L347.46 214.87 L347.01 213.22 L346.18 213.01 L346.18 212.26 L345.34 210.62 L344.52 210.67 L343.91 211.83 L343.01 210.92 L344.20 209.71 L343.53 208.72 L342.44 208.81 L341.61 208.35 L341.92 207.67 L341.74 206.50 L340.47 206.67 L339.53 206.45 L339.03 205.91 L338.04 206.15 L336.24 205.37 L335.15 205.46 L333.66 206.81 L334.43 208.23 L333.09 208.46 L332.30 208.36 L330.88 208.91 L329.78 208.39 L327.77 208.94 L326.42 208.72 L325.92 210.41 L325.03 210.49 L324.30 210.11 L323.64 209.27 L323.85 208.34 L323.15 208.20 L323.19 209.42 L321.86 208.79 L320.12 210.35 L319.52 209.59 L318.51 209.47 L318.00 210.40 L317.13 210.28 L316.68 209.63 L316.11 210.18 L314.90 210.16 L313.41 209.80 L313.83 208.03 L313.37 206.97 L312.67 207.85 L311.77 207.64 L311.44 206.68 L312.42 206.12 L310.95 204.82 L310.96 203.95 L310.39 202.87 L310.33 201.97 L309.32 200.68 L308.25 200.53 L308.73 199.69 L308.26 198.76 L307.14 199.98 L305.95 200.22 L305.11 198.08 L304.41 197.75 L303.60 198.32 L303.00 197.85 L304.14 196.74 L304.48 196.08 L303.79 195.54 L304.56 194.70 L304.32 193.89 L303.38 193.47 L303.40 192.48 L302.72 192.16 L302.62 191.49 L301.63 190.57 L300.55 189.22 L299.08 188.95 L298.28 189.64 L297.88 188.18 L298.11 187.08 L297.15 186.55 L297.61 185.19 L297.03 183.85 L298.52 183.02 L297.58 181.56 L298.15 181.29 L299.29 181.42 L299.94 180.75 L299.50 179.51 L300.52 178.57 L300.72 177.85 L302.37 177.10 L301.20 176.47 L301.15 175.99 L299.33 175.52 L298.70 175.01 L299.62 173.91 L299.46 172.90 L299.63 171.42 L298.82 171.48 L298.37 170.50 L297.27 170.39 L297.70 169.19 L298.77 169.08 L298.43 167.82 L300.12 167.20 L300.12 165.90 L300.86 164.03 L301.51 162.97 L302.95 162.52 L302.97 161.67 L303.85 161.37 L303.52 160.63 L304.45 160.36 L305.02 158.59 L305.87 158.43 L306.28 157.88 L305.83 156.89 L305.31 156.69 L303.39 157.06 L303.39 155.81 L305.03 154.74 L304.16 152.95 L304.12 152.10 L304.50 151.34 L305.49 151.46 L306.46 151.17 L307.03 151.73 L308.54 151.05 L308.61 150.04 L307.79 150.25 L307.12 149.86 L306.89 148.68 L305.78 148.51 L306.05 147.02 L305.55 145.88 L305.62 144.50 L305.19 143.44 L306.95 142.50 L308.33 142.27 L309.45 141.33 L310.89 141.27 L311.70 140.93 L311.97 140.09 L311.37 139.38 L312.24 138.90 L313.30 139.49 L314.17 138.79 L315.32 140.27 L316.39 140.25 L316.96 141.21 L317.69 141.13 L317.83 139.29 L318.09 138.89 L317.76 137.29 L318.39 136.65 L317.91 135.79 L317.85 133.83 L319.02 133.02 L318.98 132.30 L318.41 131.67 L319.00 130.76 L317.56 128.63 L317.89 127.87 L318.61 127.51 L319.61 127.90 L320.53 126.89 L320.61 125.49 L321.16 124.97 L322.45 124.46 L322.66 123.60 L323.73 123.06 L323.83 122.25 L324.43 121.70 L324.16 121.08 L323.18 120.40 L323.79 119.81 L323.39 119.16 L323.69 117.78 L324.49 116.66 L324.71 114.36 L323.49 113.78 L324.00 111.65 Z"/>
<path class="france-region" data-name="Pays de la Loire" d="M110.42 233.05 L110.58 232.40 L111.55 231.69 L112.29 232.68 L113.22 232.33 L113.73 232.74 L115.07 232.28 L115.06 231.27 L115.51 230.58 L116.71 229.96 L117.26 230.91 L118.97 230.04 L119.21 231.00 L120.13 230.78 L120.08 229.56 L121.91 229.00 L121.98 227.18 L121.75 226.38 L122.28 225.74 L122.34 224.87 L121.96 224.39 L122.67 223.43 L123.44 223.45 L123.92 222.63 L124.76 222.50 L126.04 221.69 L126.50 222.48 L127.09 221.77 L129.40 220.81 L130.72 220.84 L132.32 221.21 L132.97 220.79 L133.88 221.20 L134.91 220.53 L136.05 220.64 L136.60 220.08 L136.69 219.11 L137.30 218.09 L138.03 217.53 L140.12 217.06 L140.88 216.35 L142.08 216.04 L141.80 215.18 L142.12 214.75 L143.64 215.09 L144.51 215.05 L145.46 216.47 L146.81 216.76 L149.12 217.50 L149.37 215.92 L150.08 214.91 L150.14 214.29 L150.93 213.18 L150.70 212.15 L151.35 211.76 L151.88 209.77 L152.06 208.50 L152.95 208.14 L153.70 207.39 L154.71 207.74 L156.29 207.11 L156.39 206.28 L155.87 205.27 L156.23 203.58 L155.39 202.58 L155.05 199.70 L154.43 198.10 L154.62 197.28 L153.73 194.35 L154.35 192.60 L155.54 191.19 L154.91 189.24 L155.25 188.49 L154.51 187.15 L154.32 186.10 L154.87 185.25 L154.56 182.93 L154.73 182.50 L155.04 182.17 L156.84 183.43 L157.86 183.16 L158.36 182.10 L159.45 182.31 L160.30 183.15 L161.43 182.83 L163.43 184.58 L164.06 184.57 L164.00 185.50 L164.72 185.96 L166.06 185.36 L165.40 184.78 L165.58 184.22 L166.48 184.48 L167.62 183.58 L168.11 185.60 L169.78 184.30 L171.33 184.15 L171.96 183.14 L172.77 182.63 L173.63 182.83 L174.72 182.24 L177.16 183.24 L178.09 182.88 L178.67 181.80 L180.22 182.55 L180.50 181.77 L181.18 181.12 L180.53 180.60 L181.41 179.90 L182.28 179.87 L183.48 181.12 L184.27 181.57 L183.58 182.15 L184.30 185.08 L185.49 185.43 L187.23 185.15 L187.06 186.35 L187.15 188.58 L187.46 188.69 L189.00 187.91 L189.56 188.67 L190.88 188.53 L191.08 187.40 L192.05 187.22 L192.60 186.01 L193.72 185.93 L194.38 184.60 L194.95 184.74 L195.85 184.17 L198.47 183.84 L200.24 184.92 L201.07 186.51 L200.75 187.21 L201.12 189.88 L201.10 190.90 L201.85 191.82 L202.65 192.20 L204.45 192.14 L204.67 193.15 L205.81 194.17 L205.99 194.92 L207.37 195.19 L208.79 195.14 L209.73 194.26 L210.45 194.69 L211.09 195.57 L211.98 197.40 L213.28 198.19 L214.35 197.58 L215.60 198.89 L216.40 198.90 L217.98 199.76 L218.05 200.42 L216.10 200.49 L215.74 201.95 L215.79 203.40 L214.46 203.46 L214.34 205.09 L215.72 205.87 L215.45 207.03 L215.02 207.38 L215.62 208.36 L215.87 209.67 L214.97 209.99 L214.71 211.13 L213.80 211.14 L213.06 212.06 L213.61 214.51 L212.67 215.14 L212.02 216.44 L209.67 218.52 L208.70 218.89 L208.41 219.80 L207.42 220.55 L208.50 221.41 L208.51 221.96 L207.55 222.63 L206.76 222.52 L206.27 223.20 L205.38 223.28 L204.80 223.76 L203.46 224.04 L203.25 224.96 L202.42 225.03 L201.54 223.94 L200.53 224.64 L201.56 226.16 L201.74 226.89 L200.97 227.37 L199.73 226.85 L199.20 226.21 L197.76 226.00 L197.16 225.30 L196.23 225.48 L196.37 226.92 L195.75 227.27 L195.32 228.51 L196.06 229.32 L195.91 230.51 L195.57 230.90 L194.67 232.84 L194.80 234.16 L194.24 235.07 L194.25 235.94 L194.73 236.25 L193.66 237.10 L193.59 237.90 L192.64 238.51 L191.40 240.79 L191.06 242.51 L191.20 243.77 L190.59 244.87 L191.01 245.22 L190.61 246.44 L190.06 246.60 L189.50 245.88 L188.55 246.73 L187.74 248.25 L187.48 249.75 L186.15 249.38 L185.76 249.84 L185.63 251.08 L184.79 251.57 L184.18 250.84 L183.19 250.85 L184.03 249.39 L182.99 249.04 L182.43 249.63 L181.18 249.16 L179.70 249.36 L177.99 250.02 L177.46 249.73 L176.65 250.01 L176.10 250.80 L175.21 250.71 L174.07 250.95 L174.12 250.28 L173.08 250.26 L171.03 251.22 L171.16 252.08 L170.84 253.21 L169.24 254.45 L168.34 254.42 L167.32 254.03 L166.05 254.79 L165.16 254.08 L164.57 254.48 L163.75 253.87 L161.57 255.09 L160.42 255.25 L161.03 256.72 L161.70 256.62 L162.43 257.23 L162.81 258.60 L162.33 259.51 L162.87 259.75 L163.94 261.46 L165.50 262.45 L166.26 262.47 L165.68 264.97 L166.54 266.45 L167.54 267.31 L167.95 268.08 L167.16 268.73 L168.54 269.87 L168.65 271.03 L169.29 271.82 L168.88 272.50 L169.36 273.31 L168.95 273.81 L169.52 274.51 L169.67 275.86 L168.96 276.03 L168.30 277.01 L168.94 277.52 L169.23 279.19 L169.14 280.24 L168.56 280.54 L168.44 281.29 L169.07 282.48 L169.41 281.40 L170.82 282.36 L171.72 282.66 L170.96 283.90 L169.63 283.82 L169.58 284.48 L168.57 284.92 L168.20 285.87 L167.43 285.91 L166.63 285.50 L165.90 285.97 L165.85 286.55 L164.94 286.46 L163.28 285.50 L163.07 284.89 L162.08 284.80 L161.73 285.87 L160.56 285.45 L160.01 286.02 L159.05 286.07 L158.19 285.59 L158.75 285.00 L159.15 283.62 L158.10 283.64 L157.69 284.30 L156.53 284.09 L155.30 284.70 L154.40 285.67 L152.84 286.19 L151.64 285.75 L150.52 285.92 L150.73 286.64 L150.39 287.18 L150.35 288.21 L147.98 286.20 L145.98 284.72 L145.27 284.41 L144.17 284.79 L143.30 284.48 L142.10 284.70 L141.40 282.90 L140.95 282.16 L139.93 281.63 L139.45 281.78 L137.46 281.42 L134.37 279.68 L132.85 278.57 L132.17 277.74 L131.00 277.62 L130.76 276.31 L129.65 272.37 L128.54 271.15 L126.94 268.53 L126.16 268.49 L125.61 267.17 L122.76 264.26 L120.55 262.63 L120.11 259.27 L121.15 259.20 L121.75 257.81 L123.20 256.41 L124.12 253.71 L125.68 252.76 L124.91 251.24 L124.02 250.67 L123.35 249.71 L121.41 248.97 L120.09 248.83 L119.38 248.40 L118.21 248.31 L117.82 247.98 L117.84 246.98 L119.72 246.33 L120.00 244.31 L119.29 243.19 L119.61 242.87 L119.63 241.52 L119.08 240.95 L117.22 242.11 L116.44 242.88 L115.43 243.03 L114.22 242.14 L113.25 241.10 L112.34 240.91 L110.95 241.89 L110.52 241.53 L108.65 240.76 L109.00 238.68 L108.42 237.27 L107.22 236.52 L108.01 236.13 L109.61 234.74 L110.67 234.13 L110.42 233.05 Z M115.33 267.68 L114.34 268.67 L113.39 268.34 L112.52 267.58 L112.32 266.90 L113.20 266.61 L114.89 267.23 L115.33 267.68 Z M118.73 256.40 L117.93 255.74 L116.62 255.94 L115.45 254.63 L115.72 253.53 L116.23 252.76 L117.05 252.84 L118.07 253.72 L117.83 255.23 L120.04 256.45 L120.35 257.19 L120.32 258.18 L119.69 258.39 L119.45 257.42 L118.73 256.40 Z"/>
<path class="france-region" data-name="Bretagne" d="M72.10 175.22 L72.82 174.67 L74.59 174.70 L74.47 172.42 L75.41 171.92 L75.58 170.92 L74.50 169.82 L74.69 168.98 L76.06 168.28 L75.88 167.29 L76.44 166.96 L78.21 167.28 L79.41 168.54 L80.45 168.38 L80.93 167.64 L81.74 167.46 L82.82 166.60 L84.77 166.70 L85.30 165.64 L86.13 165.19 L86.67 166.74 L87.78 165.84 L89.16 165.27 L90.13 165.13 L90.47 167.09 L91.42 167.67 L92.70 167.34 L92.94 168.40 L91.69 169.00 L92.79 170.03 L94.73 170.17 L95.41 170.65 L94.89 172.25 L95.52 172.88 L96.64 173.36 L96.94 174.50 L97.72 174.51 L98.66 175.64 L99.02 177.61 L98.90 178.40 L100.17 178.80 L100.39 179.50 L102.07 180.23 L102.04 181.32 L102.76 182.63 L103.49 182.39 L103.30 181.40 L104.94 181.65 L104.91 181.07 L105.73 180.41 L107.19 178.74 L109.25 177.65 L109.96 176.97 L110.12 175.69 L111.15 175.56 L111.90 176.08 L113.54 175.40 L115.02 174.50 L115.67 175.19 L115.05 176.48 L114.28 177.13 L115.10 177.53 L115.48 176.92 L116.65 175.98 L118.50 179.10 L119.45 179.22 L120.04 178.65 L119.76 177.88 L121.11 177.87 L120.54 176.56 L121.51 176.18 L122.72 176.16 L123.30 176.76 L124.09 176.97 L123.98 177.63 L124.62 178.69 L124.84 179.72 L125.94 181.24 L126.71 181.03 L126.30 180.48 L125.31 178.37 L124.78 177.71 L124.23 176.42 L124.23 175.60 L125.21 175.18 L126.02 173.91 L127.03 173.52 L128.06 173.71 L128.55 173.30 L129.89 173.51 L130.28 174.16 L129.44 174.83 L129.15 175.79 L130.00 177.29 L132.27 177.92 L135.87 177.56 L138.75 176.81 L139.75 178.09 L139.64 179.03 L140.41 179.69 L139.95 180.59 L140.39 180.98 L141.15 182.48 L141.33 183.42 L142.63 183.57 L143.28 184.71 L144.76 184.98 L145.97 184.20 L146.48 183.09 L148.06 182.46 L148.28 181.27 L150.38 180.87 L150.96 181.52 L151.51 181.41 L152.28 182.06 L152.81 181.86 L154.73 182.50 L154.56 182.93 L154.87 185.25 L154.32 186.10 L154.51 187.15 L155.25 188.49 L154.91 189.24 L155.54 191.19 L154.35 192.60 L153.73 194.35 L154.62 197.28 L154.43 198.10 L155.05 199.70 L155.39 202.58 L156.23 203.58 L155.87 205.27 L156.39 206.28 L156.29 207.11 L154.71 207.74 L153.70 207.39 L152.95 208.14 L152.06 208.50 L151.88 209.77 L151.35 211.76 L150.70 212.15 L150.93 213.18 L150.14 214.29 L150.08 214.91 L149.37 215.92 L149.12 217.50 L146.81 216.76 L145.46 216.47 L144.51 215.05 L143.64 215.09 L142.12 214.75 L141.80 215.18 L142.08 216.04 L140.88 216.35 L140.12 217.06 L138.03 217.53 L137.30 218.09 L136.69 219.11 L136.60 220.08 L136.05 220.64 L134.91 220.53 L133.88 221.20 L132.97 220.79 L132.32 221.21 L130.72 220.84 L129.40 220.81 L127.09 221.77 L126.50 222.48 L126.04 221.69 L124.76 222.50 L123.92 222.63 L123.44 223.45 L122.67 223.43 L121.96 224.39 L122.34 224.87 L122.28 225.74 L121.75 226.38 L121.98 227.18 L121.91 229.00 L120.08 229.56 L120.13 230.78 L119.21 231.00 L118.97 230.04 L117.26 230.91 L116.71 229.96 L115.51 230.58 L115.06 231.27 L115.07 232.28 L113.73 232.74 L113.22 232.33 L112.29 232.68 L111.55 231.69 L110.58 232.40 L110.42 233.05 L109.75 233.29 L109.14 232.62 L109.43 231.82 L109.05 231.10 L110.97 230.78 L110.18 230.05 L108.53 229.36 L107.69 229.52 L107.41 230.01 L105.79 229.84 L105.79 229.14 L104.24 228.74 L104.25 229.23 L103.31 230.80 L102.22 230.34 L100.04 230.88 L99.67 231.26 L97.94 230.67 L98.00 230.03 L97.12 228.98 L95.91 228.57 L96.03 227.77 L96.88 227.64 L97.54 228.66 L98.92 228.37 L99.35 228.02 L100.72 228.88 L101.62 228.14 L102.22 226.99 L102.25 226.21 L100.88 225.27 L100.97 224.17 L99.68 224.95 L98.52 225.21 L97.89 224.98 L96.70 225.70 L96.52 226.73 L95.15 226.04 L94.71 226.86 L92.99 227.46 L92.29 226.64 L90.11 227.55 L89.21 227.32 L88.89 229.07 L89.41 230.79 L90.12 231.44 L89.01 231.84 L88.30 230.42 L88.29 229.29 L88.84 228.30 L88.68 226.84 L88.08 225.55 L86.96 224.84 L86.44 223.95 L86.50 222.87 L87.06 221.97 L87.82 222.07 L89.05 220.88 L89.12 220.03 L88.05 219.36 L87.51 219.49 L87.60 221.05 L86.20 222.69 L86.28 223.73 L84.49 222.14 L83.95 221.09 L82.26 220.73 L82.00 219.78 L80.78 221.05 L79.40 220.99 L78.69 221.36 L77.23 219.74 L76.51 218.40 L76.23 217.22 L76.63 216.15 L76.03 215.61 L75.96 214.68 L76.45 214.06 L75.92 214.67 L75.82 215.37 L76.45 216.29 L75.95 218.17 L75.13 217.88 L73.44 217.84 L71.86 217.31 L71.41 217.49 L69.65 216.12 L68.82 216.84 L67.59 216.98 L66.95 216.53 L65.98 216.58 L64.37 214.58 L63.29 212.46 L61.88 211.39 L61.57 212.53 L61.93 213.84 L59.90 214.22 L58.94 213.35 L57.20 213.34 L56.00 214.05 L55.63 212.78 L54.93 213.49 L55.50 214.52 L56.14 214.88 L55.38 216.37 L54.31 216.72 L52.63 216.82 L51.69 216.37 L49.66 216.59 L49.12 215.34 L50.06 214.93 L50.04 213.67 L49.49 211.87 L48.84 210.37 L47.71 208.64 L46.75 207.74 L44.95 206.63 L43.97 206.26 L43.20 206.88 L41.53 206.07 L41.02 205.47 L40.40 205.82 L38.90 205.55 L38.36 203.89 L39.72 203.97 L39.97 203.52 L41.38 203.60 L42.71 202.96 L43.55 203.19 L44.23 202.66 L45.66 202.74 L46.33 202.14 L47.52 202.13 L49.27 201.61 L51.42 202.61 L52.11 201.87 L52.17 200.81 L52.55 200.52 L52.51 199.51 L51.78 199.16 L51.90 198.44 L51.55 197.56 L50.63 197.01 L49.50 197.06 L49.21 196.49 L46.45 195.48 L45.21 195.85 L44.61 197.72 L43.54 198.85 L43.59 196.93 L43.22 195.77 L43.84 195.34 L43.47 194.51 L42.59 194.83 L41.87 194.40 L43.14 193.17 L42.69 191.58 L43.57 190.66 L43.82 191.34 L43.58 192.79 L44.15 193.28 L44.69 192.74 L45.18 193.44 L46.70 192.87 L47.70 192.92 L48.07 193.60 L48.95 193.71 L50.43 193.21 L51.39 192.65 L52.55 192.71 L52.86 193.50 L54.10 192.70 L52.25 191.83 L50.73 191.80 L51.13 190.80 L49.50 190.42 L49.25 191.26 L47.11 191.23 L47.06 190.17 L48.36 188.20 L47.66 187.83 L47.33 188.51 L46.60 188.40 L45.04 188.91 L44.05 189.78 L43.68 189.54 L41.79 190.70 L41.18 190.72 L39.57 189.86 L39.05 189.99 L38.64 190.97 L36.57 191.12 L36.65 189.55 L36.94 189.03 L36.51 188.23 L36.53 187.48 L35.85 187.09 L36.38 185.34 L37.00 184.33 L36.42 182.75 L37.03 181.90 L36.89 181.42 L37.91 180.19 L38.73 179.58 L39.48 179.66 L41.19 179.10 L41.76 179.25 L42.37 178.37 L43.26 178.17 L43.43 176.95 L44.64 176.41 L45.21 177.06 L47.44 176.38 L47.89 175.44 L48.52 175.40 L50.05 174.39 L51.11 174.61 L52.55 175.69 L54.08 175.75 L54.53 174.68 L55.26 173.91 L57.75 173.52 L59.39 173.77 L59.52 173.09 L60.17 172.64 L61.21 172.69 L61.75 171.98 L62.28 172.30 L62.06 173.06 L62.20 174.44 L62.84 175.53 L64.30 174.97 L64.75 176.07 L66.15 176.78 L65.81 175.71 L66.14 175.11 L65.87 173.91 L66.94 173.19 L68.01 173.17 L68.70 172.82 L69.74 172.89 L70.72 173.72 L72.10 173.50 L72.62 174.60 L72.10 175.22 Z M26.03 185.98 L26.00 184.24 L27.21 183.80 L28.02 184.58 L27.29 185.36 L26.03 185.98 Z M79.68 224.93 L79.07 224.58 L78.40 224.91 L76.94 223.95 L77.28 223.33 L79.43 223.87 L79.68 224.93 Z M86.95 236.93 L88.16 237.16 L88.68 238.63 L90.17 239.32 L91.28 239.48 L90.74 240.62 L90.10 240.83 L88.03 240.40 L87.79 239.96 L86.88 240.33 L86.09 240.28 L85.19 239.28 L85.49 238.95 L84.83 237.55 L84.81 236.64 L86.13 236.30 L86.95 236.93 Z"/>
<path class="france-region" data-name="Nouvelle-Aquitaine" d="M234.06 284.48 L234.70 283.71 L235.58 283.18 L237.47 280.81 L238.17 281.26 L238.24 282.34 L238.99 281.78 L240.41 281.79 L241.39 282.65 L242.62 281.20 L243.49 282.41 L244.03 282.53 L245.07 280.76 L244.67 279.72 L246.29 279.50 L246.96 280.65 L249.00 280.53 L249.82 280.02 L250.31 280.56 L252.02 280.20 L252.50 280.61 L254.14 281.05 L255.09 281.12 L255.56 281.63 L256.86 281.12 L258.08 280.92 L259.03 280.73 L259.55 280.97 L260.70 280.82 L261.69 281.09 L261.81 282.67 L263.04 283.59 L262.38 284.15 L263.03 285.31 L264.05 285.47 L264.55 286.08 L265.23 285.28 L266.14 286.19 L266.17 287.37 L266.86 286.89 L268.07 287.54 L267.95 288.08 L268.42 289.07 L269.19 289.57 L269.57 291.91 L270.59 292.50 L270.77 293.90 L270.29 295.01 L270.35 296.69 L270.97 298.26 L271.95 298.94 L271.69 300.97 L272.22 301.80 L270.90 302.37 L270.33 303.18 L269.57 305.11 L268.43 306.72 L267.74 306.34 L266.34 308.06 L265.53 307.93 L265.11 308.40 L266.36 309.92 L266.62 311.17 L267.23 311.45 L268.43 312.51 L269.35 313.92 L269.53 314.90 L269.08 315.61 L269.48 316.18 L269.24 316.99 L268.15 317.00 L267.99 318.43 L267.53 319.03 L268.39 320.60 L269.20 320.92 L269.22 322.27 L268.95 324.33 L268.90 324.99 L268.28 327.08 L269.50 328.15 L269.42 328.61 L268.23 328.86 L266.97 328.66 L266.21 328.03 L265.43 327.89 L264.79 327.25 L264.04 327.84 L264.51 328.52 L264.36 329.81 L263.93 330.24 L263.91 331.19 L262.86 331.40 L261.89 333.05 L261.31 332.93 L260.97 333.79 L260.34 334.24 L259.25 335.70 L258.79 336.75 L259.36 338.84 L259.35 339.54 L258.52 340.03 L258.72 340.69 L258.20 342.34 L257.20 342.11 L255.76 343.49 L256.45 345.07 L257.21 345.76 L256.97 346.67 L255.71 346.68 L254.73 347.08 L254.17 346.76 L252.14 347.24 L250.83 348.04 L250.78 347.23 L249.79 346.99 L249.09 348.00 L247.33 348.48 L247.10 349.28 L245.93 349.08 L245.53 349.47 L244.87 348.68 L244.76 348.05 L243.50 347.50 L243.23 346.57 L242.23 345.83 L241.58 344.89 L240.79 344.49 L239.20 344.18 L238.42 344.73 L238.06 343.94 L236.24 344.63 L236.01 345.19 L235.11 345.15 L233.87 345.75 L234.64 348.80 L233.91 350.13 L234.84 351.03 L234.84 351.66 L233.73 352.23 L233.63 352.81 L232.34 353.20 L232.43 354.51 L231.28 354.74 L230.37 355.17 L230.26 356.03 L231.11 356.60 L230.89 357.71 L229.72 358.81 L228.73 359.18 L227.97 360.23 L226.19 360.42 L225.49 360.86 L225.71 362.27 L223.86 364.45 L223.20 365.03 L223.09 365.45 L221.75 366.16 L220.24 366.45 L221.32 368.23 L221.09 369.38 L221.54 369.59 L221.49 370.98 L221.76 371.46 L222.64 371.73 L222.74 372.80 L222.45 373.31 L222.85 373.92 L222.39 374.63 L220.68 374.36 L220.19 374.82 L219.21 374.76 L218.25 373.67 L217.56 373.79 L217.21 374.46 L217.49 375.36 L216.64 377.01 L217.46 377.57 L218.14 377.33 L218.38 377.93 L219.22 378.54 L218.22 380.18 L218.55 380.53 L217.78 382.00 L216.33 382.20 L216.13 383.00 L216.73 383.31 L217.25 384.16 L216.62 385.16 L215.08 384.41 L214.27 384.30 L214.30 385.66 L212.96 386.11 L212.46 387.43 L212.57 387.88 L211.48 388.19 L210.84 388.73 L210.50 389.57 L209.05 388.57 L208.93 388.08 L208.11 387.50 L207.29 387.43 L206.92 388.14 L206.07 388.42 L204.39 388.17 L203.55 388.32 L203.01 389.49 L201.48 389.88 L201.07 390.49 L200.30 390.04 L198.45 391.09 L196.40 390.39 L196.06 389.92 L194.94 390.12 L194.21 390.91 L194.11 391.84 L193.29 391.80 L193.39 391.01 L191.32 391.52 L190.65 392.63 L191.15 393.73 L191.20 394.59 L190.67 395.31 L189.87 395.18 L188.29 393.81 L189.02 393.28 L188.93 392.55 L187.73 391.49 L187.40 392.50 L186.58 393.14 L184.91 393.24 L183.58 393.96 L183.27 393.59 L182.50 394.55 L181.41 395.25 L182.68 396.02 L182.55 396.87 L182.75 399.18 L181.64 399.26 L182.31 401.84 L182.69 402.41 L181.59 403.37 L181.02 403.58 L181.26 404.31 L180.72 404.94 L181.24 405.32 L181.13 406.05 L179.88 406.56 L180.02 407.74 L181.00 407.75 L181.14 409.12 L182.17 408.76 L182.35 409.18 L183.37 408.74 L183.77 409.31 L185.01 409.06 L185.80 409.23 L186.05 410.34 L186.83 410.87 L187.61 412.31 L187.31 413.19 L187.80 413.97 L186.79 414.47 L186.67 415.81 L187.52 416.80 L187.81 415.83 L188.36 415.33 L189.20 416.28 L188.76 417.54 L188.72 418.41 L189.83 419.62 L189.22 420.54 L188.09 420.35 L187.42 421.61 L187.47 422.29 L188.35 422.94 L187.42 424.62 L186.57 424.96 L186.72 427.03 L185.13 426.89 L184.86 427.88 L184.22 429.17 L183.43 429.82 L182.79 429.91 L182.90 431.13 L182.53 431.96 L182.49 432.91 L181.73 433.30 L180.59 433.10 L180.44 434.34 L179.72 434.51 L179.56 435.16 L179.90 437.67 L178.45 438.41 L179.09 440.44 L178.88 441.34 L178.63 441.87 L177.80 441.92 L177.14 442.88 L176.36 443.50 L175.83 443.15 L174.71 443.64 L172.62 442.38 L172.14 442.98 L172.20 443.53 L171.53 443.78 L171.30 444.46 L170.68 444.23 L170.73 443.19 L169.97 443.34 L169.62 442.07 L168.18 441.08 L167.23 439.81 L166.58 440.02 L165.74 439.51 L165.43 438.60 L165.75 438.13 L164.90 436.21 L163.74 436.33 L163.04 436.89 L161.28 436.92 L160.17 436.43 L158.68 436.78 L156.96 435.73 L156.77 435.25 L154.32 434.70 L153.36 433.79 L152.71 434.32 L151.65 433.22 L151.20 433.35 L149.67 432.36 L149.08 432.92 L148.54 432.83 L147.92 432.10 L147.12 431.77 L147.44 430.70 L148.03 429.61 L146.69 429.86 L145.92 430.79 L146.09 431.27 L145.65 433.53 L142.89 432.75 L141.92 431.23 L141.94 430.77 L143.71 429.20 L143.69 428.23 L144.10 427.79 L144.14 427.00 L144.70 426.41 L144.76 423.71 L143.78 422.81 L142.97 423.11 L141.16 422.40 L140.84 421.96 L138.95 422.18 L139.16 422.66 L138.53 423.81 L137.55 423.75 L136.85 422.33 L137.10 421.62 L135.68 421.01 L134.82 421.11 L133.68 421.84 L132.79 419.72 L131.85 419.39 L131.79 418.40 L132.65 418.32 L136.57 416.89 L137.78 415.79 L139.00 413.53 L139.48 413.04 L140.22 411.55 L141.27 409.68 L142.29 407.56 L142.85 405.62 L143.04 403.58 L143.88 399.48 L144.99 394.66 L146.19 388.37 L146.89 384.99 L148.11 376.57 L148.87 369.94 L148.94 367.83 L148.72 366.38 L149.71 365.10 L150.48 362.99 L150.46 362.22 L150.86 361.29 L151.81 361.17 L152.48 361.89 L154.39 362.19 L154.87 361.91 L156.44 361.80 L156.18 360.61 L155.18 359.17 L153.57 357.61 L153.23 357.55 L151.68 356.14 L151.23 356.92 L151.42 357.49 L149.93 359.10 L149.38 360.40 L149.11 362.14 L148.61 362.57 L148.94 358.99 L149.80 352.61 L150.46 346.48 L150.90 341.16 L151.79 332.54 L151.90 329.83 L151.85 327.42 L152.15 326.01 L151.96 324.70 L152.62 322.85 L153.77 321.46 L154.06 320.51 L155.03 320.63 L155.70 321.70 L155.71 322.81 L156.80 323.68 L157.80 325.02 L159.08 325.92 L160.24 327.27 L162.14 328.90 L163.23 330.25 L164.39 332.91 L164.92 334.80 L165.22 337.45 L167.10 342.47 L168.04 343.76 L169.47 345.32 L170.04 344.13 L168.59 342.66 L168.07 341.16 L167.58 340.30 L167.51 338.37 L166.92 336.10 L166.43 333.19 L165.95 331.20 L165.45 329.32 L164.75 327.63 L163.30 325.19 L161.84 323.41 L159.13 321.17 L158.16 320.76 L157.20 319.84 L157.17 318.90 L156.66 318.27 L155.41 317.87 L154.44 317.02 L153.27 316.65 L151.95 315.52 L150.29 314.38 L149.40 313.96 L149.23 310.50 L150.30 309.85 L150.84 310.14 L152.76 309.43 L151.97 307.68 L152.08 306.80 L152.98 307.03 L153.75 306.35 L154.62 304.42 L154.52 303.39 L154.92 302.78 L153.81 300.92 L154.96 300.74 L155.29 299.97 L154.87 298.19 L154.14 298.00 L153.76 296.17 L153.30 295.78 L152.85 294.64 L151.45 294.07 L151.28 293.43 L150.37 293.78 L149.83 292.85 L150.61 291.54 L150.62 290.67 L151.50 290.17 L152.41 289.25 L152.49 288.78 L153.42 288.45 L152.84 286.19 L154.40 285.67 L155.30 284.70 L156.53 284.09 L157.69 284.30 L158.10 283.64 L159.15 283.62 L158.75 285.00 L158.19 285.59 L159.05 286.07 L160.01 286.02 L160.56 285.45 L161.73 285.87 L162.08 284.80 L163.07 284.89 L163.28 285.50 L164.94 286.46 L165.85 286.55 L165.90 285.97 L166.63 285.50 L167.43 285.91 L168.20 285.87 L168.57 284.92 L169.58 284.48 L169.63 283.82 L170.96 283.90 L171.72 282.66 L170.82 282.36 L169.41 281.40 L169.07 282.48 L168.44 281.29 L168.56 280.54 L169.14 280.24 L169.23 279.19 L168.94 277.52 L168.30 277.01 L168.96 276.03 L169.67 275.86 L169.52 274.51 L168.95 273.81 L169.36 273.31 L168.88 272.50 L169.29 271.82 L168.65 271.03 L168.54 269.87 L167.16 268.73 L167.95 268.08 L167.54 267.31 L166.54 266.45 L165.68 264.97 L166.26 262.47 L165.50 262.45 L163.94 261.46 L162.87 259.75 L162.33 259.51 L162.81 258.60 L162.43 257.23 L161.70 256.62 L161.03 256.72 L160.42 255.25 L161.57 255.09 L163.75 253.87 L164.57 254.48 L165.16 254.08 L166.05 254.79 L167.32 254.03 L168.34 254.42 L169.24 254.45 L170.84 253.21 L171.16 252.08 L171.03 251.22 L173.08 250.26 L174.12 250.28 L174.07 250.95 L175.21 250.71 L176.10 250.80 L176.65 250.01 L177.46 249.73 L177.99 250.02 L179.70 249.36 L181.18 249.16 L182.43 249.63 L182.99 249.04 L184.03 249.39 L183.19 250.85 L184.18 250.84 L184.79 251.57 L185.63 251.08 L185.76 249.84 L186.15 249.38 L187.48 249.75 L187.74 248.25 L188.55 246.73 L189.50 245.88 L190.06 246.60 L190.61 246.44 L191.33 248.31 L193.23 248.42 L193.19 249.06 L193.89 249.27 L194.68 248.76 L195.30 249.84 L194.45 250.78 L195.53 251.62 L196.73 250.78 L197.57 251.94 L198.41 251.59 L198.76 252.05 L198.42 253.20 L198.72 254.12 L198.49 255.34 L198.82 257.02 L199.26 257.36 L200.59 256.47 L202.89 257.41 L203.08 256.87 L204.93 256.08 L206.10 255.98 L206.90 256.19 L208.09 256.03 L208.08 255.37 L207.35 255.06 L206.98 254.01 L208.64 253.77 L209.19 254.80 L210.99 255.32 L211.43 257.05 L211.37 258.64 L212.89 260.62 L214.72 262.16 L214.80 263.71 L215.31 264.54 L216.57 265.87 L217.65 266.43 L218.51 268.33 L217.88 268.92 L217.82 270.55 L217.43 271.57 L218.12 272.92 L218.92 273.63 L220.40 274.36 L221.28 274.26 L221.46 275.68 L223.60 275.63 L224.26 275.94 L225.56 277.30 L225.11 277.62 L225.69 278.66 L225.64 279.76 L227.54 280.68 L226.46 282.78 L227.34 282.61 L227.80 283.61 L229.12 283.02 L230.48 283.38 L231.09 282.52 L232.17 282.03 L233.05 283.21 L233.86 283.83 L234.06 284.48 Z M185.59 419.08 L186.01 419.06 L186.10 420.16 L185.20 420.23 L185.37 421.08 L186.49 421.33 L186.89 419.60 L186.23 418.52 L185.59 419.08 Z M185.60 424.15 L186.34 423.30 L185.82 422.28 L185.95 421.63 L185.32 421.19 L184.50 422.27 L184.40 422.88 L185.00 424.13 L185.60 424.15 Z M141.62 290.81 L142.52 289.96 L143.41 289.88 L143.27 291.01 L144.07 291.13 L145.36 290.93 L146.72 291.87 L147.68 291.91 L148.22 293.11 L148.16 293.71 L147.25 293.91 L145.64 293.31 L144.48 292.33 L142.24 291.18 L140.82 291.55 L139.98 291.17 L139.05 289.56 L140.61 288.60 L141.35 288.82 L141.83 289.74 L140.61 290.25 L141.62 290.81 Z M148.98 307.55 L148.48 306.07 L147.61 305.08 L145.77 303.92 L144.56 302.44 L144.34 301.55 L144.62 300.61 L143.78 298.33 L145.09 298.67 L145.10 299.01 L147.19 300.89 L149.06 300.92 L149.44 301.33 L149.25 302.44 L149.64 303.04 L149.51 303.83 L149.84 304.47 L150.96 305.68 L150.34 307.35 L150.73 308.30 L149.57 309.57 L149.13 308.68 L148.98 307.55 Z"/>
<path class="france-region" data-name="Occitanie" d="M245.90 453.31 L245.48 453.01 L243.97 452.59 L244.36 451.68 L242.62 451.09 L241.93 451.33 L241.14 450.86 L240.16 450.98 L239.50 450.71 L238.75 449.85 L238.33 449.75 L236.81 450.21 L236.13 449.94 L235.79 450.94 L236.04 451.52 L235.35 452.08 L234.85 452.02 L234.22 451.04 L234.02 449.79 L233.18 449.09 L233.24 448.48 L232.12 447.85 L232.23 447.16 L231.18 446.79 L229.67 447.23 L228.86 447.15 L228.09 446.64 L227.74 446.94 L225.97 447.35 L225.06 446.57 L224.89 445.43 L224.22 444.69 L223.06 444.25 L220.27 444.05 L219.52 443.24 L218.37 443.90 L216.28 442.37 L214.47 441.72 L213.99 441.92 L212.43 441.36 L211.50 440.81 L209.92 441.81 L210.27 442.42 L210.29 443.28 L209.46 444.22 L209.64 445.04 L210.66 447.44 L210.29 448.27 L208.28 447.87 L207.62 448.05 L205.79 447.71 L205.44 448.18 L204.14 447.83 L202.79 448.25 L201.72 447.98 L201.42 447.26 L200.37 446.82 L199.30 447.60 L199.13 448.56 L198.23 448.92 L197.37 448.01 L197.19 447.16 L196.12 447.08 L195.46 446.56 L194.50 446.23 L194.01 446.77 L193.25 446.86 L192.44 447.39 L191.77 447.09 L190.36 447.97 L189.67 447.72 L188.55 448.51 L186.98 448.12 L186.69 447.05 L185.62 446.89 L183.79 443.60 L183.19 444.12 L181.28 443.13 L180.06 441.94 L178.88 441.34 L179.09 440.44 L178.45 438.41 L179.90 437.67 L179.56 435.16 L179.72 434.51 L180.44 434.34 L180.59 433.10 L181.73 433.30 L182.49 432.91 L182.53 431.96 L182.90 431.13 L182.79 429.91 L183.43 429.82 L184.22 429.17 L184.86 427.88 L185.13 426.89 L186.72 427.03 L186.57 424.96 L187.42 424.62 L188.35 422.94 L187.47 422.29 L187.42 421.61 L188.09 420.35 L189.22 420.54 L189.83 419.62 L188.72 418.41 L188.76 417.54 L189.20 416.28 L188.36 415.33 L187.81 415.83 L187.52 416.80 L186.67 415.81 L186.79 414.47 L187.80 413.97 L187.31 413.19 L187.61 412.31 L186.83 410.87 L186.05 410.34 L185.80 409.23 L185.01 409.06 L183.77 409.31 L183.37 408.74 L182.35 409.18 L182.17 408.76 L181.14 409.12 L181.00 407.75 L180.02 407.74 L179.88 406.56 L181.13 406.05 L181.24 405.32 L180.72 404.94 L181.26 404.31 L181.02 403.58 L181.59 403.37 L182.69 402.41 L182.31 401.84 L181.64 399.26 L182.75 399.18 L182.55 396.87 L182.68 396.02 L181.41 395.25 L182.50 394.55 L183.27 393.59 L183.58 393.96 L184.91 393.24 L186.58 393.14 L187.40 392.50 L187.73 391.49 L188.93 392.55 L189.02 393.28 L188.29 393.81 L189.87 395.18 L190.67 395.31 L191.20 394.59 L191.15 393.73 L190.65 392.63 L191.32 391.52 L193.39 391.01 L193.29 391.80 L194.11 391.84 L194.21 390.91 L194.94 390.12 L196.06 389.92 L196.40 390.39 L198.45 391.09 L200.30 390.04 L201.07 390.49 L201.48 389.88 L203.01 389.49 L203.55 388.32 L204.39 388.17 L206.07 388.42 L206.92 388.14 L207.29 387.43 L208.11 387.50 L208.93 388.08 L209.05 388.57 L210.50 389.57 L210.84 388.73 L211.48 388.19 L212.57 387.88 L212.46 387.43 L212.96 386.11 L214.30 385.66 L214.27 384.30 L215.08 384.41 L216.62 385.16 L217.25 384.16 L216.73 383.31 L216.13 383.00 L216.33 382.20 L217.78 382.00 L218.55 380.53 L218.22 380.18 L219.22 378.54 L218.38 377.93 L218.14 377.33 L217.46 377.57 L216.64 377.01 L217.49 375.36 L217.21 374.46 L217.56 373.79 L218.25 373.67 L219.21 374.76 L220.19 374.82 L220.68 374.36 L222.39 374.63 L222.85 373.92 L222.45 373.31 L222.74 372.80 L222.64 371.73 L221.76 371.46 L221.49 370.98 L221.54 369.59 L221.09 369.38 L221.32 368.23 L220.24 366.45 L221.75 366.16 L223.09 365.45 L223.20 365.03 L223.86 364.45 L225.71 362.27 L225.49 360.86 L226.19 360.42 L227.97 360.23 L228.73 359.18 L229.72 358.81 L230.89 357.71 L231.11 356.60 L230.26 356.03 L230.37 355.17 L231.28 354.74 L232.43 354.51 L232.34 353.20 L233.63 352.81 L233.73 352.23 L234.84 351.66 L234.84 351.03 L233.91 350.13 L234.64 348.80 L233.87 345.75 L235.11 345.15 L236.01 345.19 L236.24 344.63 L238.06 343.94 L238.42 344.73 L239.20 344.18 L240.79 344.49 L241.58 344.89 L242.23 345.83 L243.23 346.57 L243.50 347.50 L244.76 348.05 L244.87 348.68 L245.53 349.47 L245.93 349.08 L247.10 349.28 L247.33 348.48 L249.09 348.00 L249.79 346.99 L250.78 347.23 L250.83 348.04 L252.14 347.24 L254.17 346.76 L254.73 347.08 L255.28 348.09 L255.23 349.07 L256.17 350.05 L255.48 350.48 L255.70 351.75 L257.18 353.96 L258.05 354.50 L258.05 356.24 L257.62 357.14 L257.42 358.59 L257.59 359.53 L258.44 360.67 L257.99 361.18 L258.13 362.31 L259.34 363.32 L259.37 362.05 L260.02 361.54 L260.73 361.69 L262.01 361.03 L263.15 360.89 L263.34 361.74 L264.40 362.16 L264.91 361.73 L266.60 362.27 L267.15 361.85 L268.14 361.75 L268.71 359.96 L270.54 358.47 L270.42 357.75 L270.76 356.01 L271.85 355.36 L271.77 354.14 L272.24 353.65 L271.96 353.09 L272.63 352.02 L273.44 351.89 L273.71 351.14 L274.47 350.20 L275.27 350.20 L275.59 349.22 L276.05 348.87 L276.86 349.07 L277.41 349.85 L277.56 351.08 L277.38 352.53 L278.32 351.72 L278.69 351.91 L280.16 351.68 L280.02 352.73 L280.50 353.71 L280.79 354.90 L281.24 355.65 L282.09 355.29 L282.55 355.97 L282.11 356.57 L282.56 357.55 L282.25 358.31 L282.82 360.56 L283.78 361.96 L284.05 362.01 L285.15 358.91 L285.55 358.18 L285.63 357.31 L286.17 356.58 L286.17 354.84 L286.92 353.50 L287.81 353.52 L287.63 352.61 L288.00 351.13 L289.14 350.38 L289.94 351.69 L290.46 352.16 L291.53 351.65 L292.19 351.07 L291.95 350.11 L292.61 349.80 L292.42 349.02 L293.77 349.34 L294.18 348.79 L295.42 348.01 L296.17 347.31 L296.97 348.15 L297.55 347.99 L297.91 349.24 L297.74 349.73 L298.54 351.42 L298.74 352.59 L299.28 353.24 L299.90 354.60 L300.78 353.96 L301.86 353.76 L303.43 353.84 L303.72 352.35 L303.61 351.64 L304.63 351.42 L305.54 351.69 L306.08 353.08 L305.99 353.73 L307.71 353.64 L308.40 353.33 L308.66 354.09 L310.25 355.83 L311.54 356.49 L311.34 357.38 L312.17 357.56 L312.40 360.47 L313.19 361.72 L313.16 363.21 L313.63 363.72 L314.11 365.27 L314.92 365.23 L315.97 367.81 L316.16 369.71 L316.50 370.29 L317.75 370.92 L318.08 372.15 L318.74 372.73 L318.24 373.91 L318.26 375.67 L317.73 376.05 L318.20 376.65 L318.84 376.21 L320.60 375.74 L321.11 376.83 L322.23 376.63 L322.51 377.44 L323.42 377.84 L324.26 378.76 L324.82 379.00 L325.41 378.55 L325.79 377.73 L325.76 376.77 L326.82 376.36 L327.28 375.66 L328.26 375.66 L328.89 375.35 L329.42 375.91 L329.03 377.29 L329.29 377.92 L330.37 378.01 L330.87 377.58 L330.95 375.88 L331.16 375.57 L332.62 375.67 L333.93 376.50 L334.33 377.24 L335.92 377.85 L336.28 378.38 L336.92 378.18 L337.27 378.75 L337.43 379.46 L338.09 380.16 L338.15 381.32 L339.10 381.24 L339.08 382.20 L339.60 382.44 L339.13 386.17 L339.86 387.26 L340.74 387.34 L341.70 387.88 L341.74 388.45 L343.29 390.11 L343.43 391.37 L342.60 391.27 L342.57 392.21 L341.42 393.52 L340.14 394.14 L339.64 394.94 L338.68 395.87 L337.04 396.64 L337.82 397.65 L337.06 398.24 L337.45 399.53 L337.34 400.41 L336.66 401.28 L336.14 402.73 L336.12 403.42 L336.59 404.46 L335.48 404.60 L335.13 404.21 L333.69 403.72 L332.10 404.08 L331.73 405.32 L331.05 405.52 L330.18 407.55 L330.59 407.99 L331.72 408.09 L330.92 409.18 L330.14 409.11 L329.62 410.17 L327.84 410.78 L326.00 412.22 L324.20 412.90 L323.90 414.61 L321.84 414.10 L320.61 413.33 L320.29 412.47 L320.99 411.45 L319.78 410.47 L318.35 410.33 L316.91 410.55 L315.55 411.10 L313.59 412.12 L311.80 413.46 L310.06 415.45 L307.77 416.56 L307.80 417.21 L306.75 417.57 L305.77 417.60 L303.87 419.22 L302.45 420.82 L300.91 422.88 L299.55 422.66 L298.37 422.08 L296.99 422.34 L295.61 422.94 L293.05 424.76 L292.32 425.47 L290.29 427.54 L289.13 429.15 L287.60 431.75 L287.00 433.11 L286.00 436.51 L285.93 437.84 L286.57 438.39 L286.03 441.82 L285.89 443.49 L285.87 446.48 L285.77 448.78 L285.82 451.04 L286.08 452.41 L286.22 454.33 L286.46 454.89 L287.41 455.46 L288.01 455.39 L289.05 455.86 L288.56 456.28 L288.89 457.31 L289.52 457.46 L289.66 458.26 L290.20 459.29 L288.49 459.19 L287.36 459.73 L286.20 458.43 L285.94 457.67 L285.04 457.95 L284.28 457.64 L283.65 457.98 L282.95 457.29 L282.23 458.30 L280.28 458.07 L279.58 458.30 L278.73 459.15 L278.23 460.03 L277.36 460.29 L276.76 459.73 L275.58 459.93 L274.22 460.63 L273.65 461.33 L274.16 463.37 L272.23 463.13 L271.16 462.65 L270.42 462.82 L269.96 463.69 L268.69 463.29 L268.14 463.44 L267.64 462.60 L266.56 461.82 L266.62 461.31 L263.87 460.54 L262.52 459.58 L262.05 459.84 L260.91 459.17 L260.59 459.55 L259.14 460.12 L257.71 459.82 L256.83 460.29 L256.40 461.60 L255.58 461.96 L255.39 462.44 L253.47 462.76 L252.27 462.47 L251.46 461.18 L251.39 459.79 L250.86 459.55 L250.66 458.51 L250.06 458.83 L249.07 458.70 L248.94 458.25 L247.93 457.92 L247.72 457.49 L246.44 456.96 L245.17 457.07 L244.14 456.82 L243.99 455.75 L244.29 454.32 L244.90 453.69 L245.90 453.31 Z M251.45 457.78 L251.44 458.53 L252.13 458.77 L253.13 458.74 L252.29 457.55 L251.45 457.78 Z M185.60 424.15 L185.00 424.13 L184.40 422.88 L184.50 422.27 L185.32 421.19 L185.95 421.63 L185.82 422.28 L186.34 423.30 L185.60 424.15 Z M185.59 419.08 L186.23 418.52 L186.89 419.60 L186.49 421.33 L185.37 421.08 L185.20 420.23 L186.10 420.16 L186.01 419.06 L185.59 419.08 Z"/>
<path class="france-region" data-name="Auvergne-Rhône-Alpes" d="M341.46 292.35 L341.91 290.43 L342.33 289.57 L342.44 288.51 L342.92 287.83 L343.10 286.81 L343.77 285.36 L343.73 284.06 L344.90 281.90 L345.02 280.19 L345.78 279.01 L345.78 277.92 L346.41 276.75 L348.61 276.92 L349.36 277.70 L350.27 278.15 L351.90 277.78 L352.85 276.97 L353.98 276.78 L354.89 277.02 L355.33 278.87 L356.63 279.63 L358.38 279.87 L358.67 280.61 L358.01 281.45 L359.37 281.95 L360.46 282.95 L360.39 284.25 L361.30 284.86 L362.06 284.86 L362.44 285.96 L363.37 285.59 L363.64 285.97 L363.05 287.84 L363.57 288.27 L365.08 288.32 L365.77 288.04 L366.55 286.94 L367.54 286.79 L368.18 285.32 L369.20 284.84 L370.32 286.16 L371.28 286.26 L371.29 287.50 L371.62 288.48 L372.91 288.13 L375.59 288.41 L376.50 288.08 L377.02 287.28 L377.48 287.40 L377.77 286.24 L378.52 286.23 L379.86 283.78 L381.33 282.65 L382.43 281.29 L383.52 281.63 L385.80 283.52 L384.26 286.03 L384.20 286.90 L383.66 287.35 L384.35 288.92 L383.63 289.55 L383.20 289.12 L381.44 289.52 L380.47 290.31 L379.70 290.49 L379.23 291.42 L380.14 291.89 L378.98 294.41 L379.92 293.89 L381.84 294.05 L382.05 293.52 L383.34 293.50 L384.43 294.02 L385.97 293.21 L386.32 292.28 L387.92 290.97 L389.24 290.56 L390.28 289.26 L390.19 288.72 L388.93 289.07 L387.98 287.71 L388.26 286.57 L389.23 284.40 L390.08 283.60 L391.39 283.43 L391.78 284.23 L392.84 284.81 L393.52 283.96 L395.34 283.31 L395.80 282.41 L396.76 281.82 L397.79 282.28 L399.16 281.93 L400.66 281.77 L403.46 281.69 L405.59 282.37 L406.12 282.95 L404.98 284.12 L405.42 285.15 L406.57 286.00 L406.88 286.66 L407.98 287.45 L407.64 288.80 L407.19 289.05 L406.04 291.08 L406.30 292.04 L405.67 292.99 L405.81 294.11 L406.39 294.52 L409.06 294.85 L408.60 296.08 L408.84 296.60 L408.24 298.09 L408.74 298.50 L409.89 297.49 L410.76 298.19 L411.81 300.18 L412.49 300.46 L413.03 301.39 L412.88 302.30 L413.49 302.56 L413.70 303.99 L412.97 304.33 L412.40 305.17 L412.47 305.79 L412.04 306.53 L410.74 306.93 L410.38 307.51 L408.95 307.70 L408.27 307.57 L406.52 308.00 L406.05 308.93 L406.33 309.29 L406.00 310.65 L406.19 313.08 L407.44 314.71 L409.32 315.39 L409.18 315.89 L410.22 316.65 L411.24 316.33 L412.33 316.97 L411.92 317.66 L411.60 319.26 L412.16 319.91 L412.03 321.93 L412.47 322.57 L412.31 323.15 L413.72 323.48 L413.77 324.34 L415.49 324.74 L415.93 326.35 L417.16 326.85 L418.18 327.56 L417.57 328.66 L417.46 329.61 L416.70 330.14 L416.60 331.03 L415.93 331.14 L416.19 332.61 L416.66 333.31 L416.70 334.40 L415.70 335.20 L414.45 336.52 L413.94 335.83 L412.94 336.26 L411.21 336.62 L410.84 337.90 L410.08 338.29 L408.96 338.41 L408.60 338.94 L408.93 339.81 L407.45 340.27 L406.31 339.32 L404.90 338.80 L403.97 339.84 L403.09 339.48 L402.09 339.69 L401.85 340.40 L400.49 341.08 L400.03 340.53 L398.79 340.46 L398.13 341.31 L397.29 341.57 L396.70 341.11 L395.72 341.92 L395.91 343.49 L394.81 343.68 L394.39 343.19 L392.96 343.23 L392.03 342.85 L392.31 342.22 L391.97 341.30 L390.96 340.68 L389.94 341.12 L388.70 340.29 L387.71 341.11 L388.14 342.90 L387.41 343.07 L386.90 345.46 L388.42 346.17 L389.97 345.84 L390.66 346.02 L390.43 346.91 L390.87 347.39 L390.89 348.40 L391.84 348.67 L391.70 349.47 L391.83 350.89 L391.58 351.38 L391.71 352.51 L391.12 352.86 L389.98 351.72 L388.99 351.86 L388.38 352.66 L386.65 352.38 L385.84 352.59 L384.48 352.25 L383.96 353.05 L382.20 354.29 L381.35 353.32 L380.54 354.11 L379.72 354.20 L378.78 354.83 L379.68 355.44 L379.75 355.88 L377.90 357.10 L377.20 356.91 L376.84 357.33 L375.50 357.21 L374.89 357.73 L374.05 359.22 L374.87 359.51 L374.83 360.17 L373.98 360.70 L373.70 361.62 L372.53 361.20 L371.64 362.25 L368.95 361.72 L369.02 363.58 L368.19 364.77 L367.53 366.55 L368.49 366.94 L369.68 368.41 L368.57 368.44 L368.14 369.71 L367.74 370.03 L366.42 369.62 L364.96 368.88 L363.79 368.88 L363.11 370.01 L363.29 370.82 L364.37 371.29 L363.68 372.08 L362.74 371.54 L361.83 371.85 L362.61 373.35 L362.35 374.34 L363.17 374.38 L363.45 375.13 L364.21 375.77 L365.12 375.23 L365.62 375.93 L368.17 375.98 L367.88 377.05 L368.83 377.44 L368.64 378.11 L369.14 378.65 L370.05 378.52 L369.95 380.11 L370.22 380.42 L370.05 382.26 L369.27 382.34 L369.12 383.38 L370.26 383.52 L370.13 384.28 L368.63 384.04 L368.88 383.32 L367.93 382.41 L366.86 382.41 L366.48 383.18 L367.08 383.77 L366.07 384.12 L365.72 384.90 L364.39 385.63 L362.98 385.47 L362.38 384.03 L360.70 383.87 L360.74 381.83 L359.77 381.28 L359.22 381.72 L357.80 381.24 L356.66 380.54 L356.07 381.29 L354.05 380.95 L353.41 380.50 L353.63 379.85 L353.25 378.22 L353.81 377.78 L353.98 377.01 L351.81 378.34 L350.91 378.13 L350.40 377.06 L348.65 378.02 L347.88 378.10 L346.33 379.11 L344.61 379.14 L342.94 380.62 L342.54 380.44 L342.49 379.31 L342.19 378.32 L342.23 377.25 L340.88 376.29 L339.54 376.23 L338.23 376.51 L337.32 376.10 L337.41 377.33 L337.27 378.75 L336.92 378.18 L336.28 378.38 L335.92 377.85 L334.33 377.24 L333.93 376.50 L332.62 375.67 L331.16 375.57 L330.95 375.88 L330.87 377.58 L330.37 378.01 L329.29 377.92 L329.03 377.29 L329.42 375.91 L328.89 375.35 L328.26 375.66 L327.28 375.66 L326.82 376.36 L325.76 376.77 L325.79 377.73 L325.41 378.55 L324.82 379.00 L324.26 378.76 L323.42 377.84 L322.51 377.44 L322.23 376.63 L321.11 376.83 L320.60 375.74 L318.84 376.21 L318.20 376.65 L317.73 376.05 L318.26 375.67 L318.24 373.91 L318.74 372.73 L318.08 372.15 L317.75 370.92 L316.50 370.29 L316.16 369.71 L315.97 367.81 L314.92 365.23 L314.11 365.27 L313.63 363.72 L313.16 363.21 L313.19 361.72 L312.40 360.47 L312.17 357.56 L311.34 357.38 L311.54 356.49 L310.25 355.83 L308.66 354.09 L308.40 353.33 L307.71 353.64 L305.99 353.73 L306.08 353.08 L305.54 351.69 L304.63 351.42 L303.61 351.64 L303.72 352.35 L303.43 353.84 L301.86 353.76 L300.78 353.96 L299.90 354.60 L299.28 353.24 L298.74 352.59 L298.54 351.42 L297.74 349.73 L297.91 349.24 L297.55 347.99 L296.97 348.15 L296.17 347.31 L295.42 348.01 L294.18 348.79 L293.77 349.34 L292.42 349.02 L292.61 349.80 L291.95 350.11 L292.19 351.07 L291.53 351.65 L290.46 352.16 L289.94 351.69 L289.14 350.38 L288.00 351.13 L287.63 352.61 L287.81 353.52 L286.92 353.50 L286.17 354.84 L286.17 356.58 L285.63 357.31 L285.55 358.18 L285.15 358.91 L284.05 362.01 L283.78 361.96 L282.82 360.56 L282.25 358.31 L282.56 357.55 L282.11 356.57 L282.55 355.97 L282.09 355.29 L281.24 355.65 L280.79 354.90 L280.50 353.71 L280.02 352.73 L280.16 351.68 L278.69 351.91 L278.32 351.72 L277.38 352.53 L277.56 351.08 L277.41 349.85 L276.86 349.07 L276.05 348.87 L275.59 349.22 L275.27 350.20 L274.47 350.20 L273.71 351.14 L273.44 351.89 L272.63 352.02 L271.96 353.09 L272.24 353.65 L271.77 354.14 L271.85 355.36 L270.76 356.01 L270.42 357.75 L270.54 358.47 L268.71 359.96 L268.14 361.75 L267.15 361.85 L266.60 362.27 L264.91 361.73 L264.40 362.16 L263.34 361.74 L263.15 360.89 L262.01 361.03 L260.73 361.69 L260.02 361.54 L259.37 362.05 L259.34 363.32 L258.13 362.31 L257.99 361.18 L258.44 360.67 L257.59 359.53 L257.42 358.59 L257.62 357.14 L258.05 356.24 L258.05 354.50 L257.18 353.96 L255.70 351.75 L255.48 350.48 L256.17 350.05 L255.23 349.07 L255.28 348.09 L254.73 347.08 L255.71 346.68 L256.97 346.67 L257.21 345.76 L256.45 345.07 L255.76 343.49 L257.20 342.11 L258.20 342.34 L258.72 340.69 L258.52 340.03 L259.35 339.54 L259.36 338.84 L258.79 336.75 L259.25 335.70 L260.34 334.24 L260.97 333.79 L261.31 332.93 L261.89 333.05 L262.86 331.40 L263.91 331.19 L263.93 330.24 L264.36 329.81 L264.51 328.52 L264.04 327.84 L264.79 327.25 L265.43 327.89 L266.21 328.03 L266.97 328.66 L268.23 328.86 L269.42 328.61 L269.50 328.15 L268.28 327.08 L268.90 324.99 L268.95 324.33 L269.22 322.27 L269.20 320.92 L268.39 320.60 L267.53 319.03 L267.99 318.43 L268.15 317.00 L269.24 316.99 L269.48 316.18 L269.08 315.61 L269.53 314.90 L269.35 313.92 L268.43 312.51 L267.23 311.45 L266.62 311.17 L266.36 309.92 L265.11 308.40 L265.53 307.93 L266.34 308.06 L267.74 306.34 L268.43 306.72 L269.57 305.11 L270.33 303.18 L270.90 302.37 L272.22 301.80 L271.69 300.97 L271.95 298.94 L270.97 298.26 L270.35 296.69 L270.29 295.01 L270.77 293.90 L270.59 292.50 L269.57 291.91 L269.19 289.57 L268.42 289.07 L267.95 288.08 L268.07 287.54 L266.86 286.89 L266.17 287.37 L266.14 286.19 L265.23 285.28 L264.55 286.08 L264.05 285.47 L263.03 285.31 L262.38 284.15 L263.04 283.59 L261.81 282.67 L261.69 281.09 L261.84 279.56 L262.47 278.54 L263.96 276.84 L264.48 276.55 L266.94 276.48 L268.13 275.89 L268.65 276.42 L269.59 276.04 L269.85 276.49 L272.19 275.08 L271.91 273.22 L271.17 272.59 L271.76 271.03 L270.98 270.00 L271.80 269.76 L272.63 270.13 L273.40 268.63 L275.12 266.82 L275.53 266.04 L276.25 266.11 L276.94 267.29 L277.97 266.56 L279.14 266.47 L281.76 264.42 L281.71 264.02 L283.36 263.28 L285.66 263.69 L286.20 265.41 L287.32 266.36 L288.78 266.85 L289.84 268.42 L290.93 269.05 L291.52 268.91 L293.25 267.34 L294.24 267.36 L294.66 268.64 L295.70 268.84 L296.33 268.52 L297.01 267.43 L298.49 267.56 L298.46 268.42 L299.12 268.85 L298.91 269.81 L299.17 270.33 L300.23 269.97 L301.36 268.77 L302.08 269.13 L302.51 268.61 L302.20 267.38 L303.06 267.42 L303.72 267.00 L303.01 265.81 L304.73 265.81 L305.00 267.78 L305.43 267.98 L305.99 269.35 L306.88 269.95 L307.37 271.20 L307.42 272.11 L308.01 272.54 L308.35 274.37 L307.99 275.11 L308.31 275.57 L309.13 275.60 L310.23 276.48 L311.26 275.96 L311.44 276.59 L312.23 276.95 L312.14 277.77 L313.06 278.27 L313.97 277.59 L315.21 277.88 L316.49 279.01 L316.18 280.40 L316.43 280.77 L315.83 282.07 L316.29 283.44 L316.13 285.77 L314.96 285.71 L314.89 286.50 L313.80 286.82 L313.35 287.77 L313.66 288.61 L313.05 290.61 L313.80 290.96 L315.68 291.15 L315.97 292.37 L317.53 292.67 L318.21 292.12 L319.88 291.35 L320.81 292.32 L322.57 292.42 L322.44 291.83 L323.19 291.52 L323.73 292.29 L324.77 291.98 L324.76 293.25 L325.55 293.28 L325.88 292.55 L326.63 292.57 L328.11 291.48 L328.94 290.36 L329.07 288.37 L329.51 286.84 L331.18 286.80 L332.14 287.22 L332.64 288.18 L333.70 288.05 L334.36 286.91 L335.27 288.11 L336.30 288.29 L336.25 287.56 L337.45 286.50 L338.54 286.60 L339.14 287.37 L338.24 288.57 L340.04 289.70 L339.55 290.24 L340.02 290.78 L339.56 291.56 L339.87 292.27 L340.73 292.56 L341.46 292.35 Z M345.05 374.53 L344.37 375.21 L345.13 375.73 L344.69 376.32 L344.94 377.25 L345.99 377.03 L347.79 377.54 L349.21 375.38 L349.33 374.62 L350.13 374.54 L350.03 373.80 L348.97 373.28 L348.89 372.72 L348.11 371.93 L347.30 371.98 L345.87 372.61 L345.49 374.12 L345.05 374.53 Z"/>
<path class="france-region" data-name="Provence-Alpes-Côte d'Azur" d="M410.65 361.55 L411.10 362.82 L410.66 363.23 L410.16 364.34 L410.13 365.23 L409.53 365.86 L408.35 366.25 L407.64 367.19 L408.02 368.71 L408.54 369.51 L409.31 369.97 L409.47 370.62 L410.30 371.22 L410.29 371.63 L408.88 372.03 L409.00 374.11 L408.71 374.70 L409.83 375.16 L409.96 375.87 L411.04 376.94 L410.89 377.56 L412.09 378.28 L412.21 379.56 L412.56 380.26 L413.54 380.82 L414.54 380.41 L415.88 381.11 L416.80 381.84 L417.40 381.60 L418.79 382.56 L419.29 383.26 L419.87 383.02 L420.24 383.73 L421.25 384.50 L423.17 384.30 L423.74 385.52 L424.72 385.23 L425.92 385.55 L426.02 385.09 L426.98 385.19 L428.44 384.39 L430.07 384.24 L430.72 383.98 L431.92 384.12 L432.89 382.86 L434.15 383.04 L433.71 383.94 L433.60 384.84 L433.83 385.53 L435.15 387.09 L435.09 387.86 L434.65 388.96 L433.53 389.41 L433.69 390.84 L433.13 391.89 L431.78 392.76 L431.35 392.70 L430.59 393.53 L430.17 394.56 L430.15 395.32 L428.62 395.99 L428.11 396.87 L428.85 399.48 L429.22 400.16 L427.95 401.08 L427.49 401.80 L426.98 401.39 L425.46 402.53 L425.49 402.95 L424.27 403.27 L423.82 403.06 L423.08 403.53 L422.72 404.22 L421.79 404.66 L421.40 404.30 L420.08 404.52 L419.51 405.71 L418.89 406.45 L418.51 405.90 L417.34 406.08 L416.75 406.87 L416.23 408.97 L416.19 410.24 L415.54 409.75 L414.46 410.15 L414.09 410.75 L412.78 410.62 L411.48 410.83 L410.78 411.33 L410.34 412.14 L410.86 412.65 L410.61 413.55 L410.19 413.74 L409.84 414.98 L409.28 415.26 L408.85 416.00 L407.74 415.92 L407.80 416.61 L406.77 416.49 L405.37 416.84 L404.84 416.21 L403.80 417.01 L403.75 417.72 L403.19 418.67 L403.05 419.69 L402.09 419.88 L401.64 420.85 L399.02 422.64 L399.09 423.20 L400.20 423.22 L400.81 422.78 L401.52 423.19 L402.00 422.58 L402.64 423.12 L402.42 423.64 L401.57 424.36 L401.76 425.77 L400.89 426.68 L400.18 427.75 L399.28 426.66 L398.14 426.55 L396.20 428.17 L395.05 427.96 L393.32 428.26 L392.15 428.79 L391.87 429.53 L392.06 430.89 L391.00 430.79 L390.49 430.13 L389.16 429.50 L388.09 429.80 L387.03 429.68 L386.14 430.10 L385.51 430.87 L385.17 432.10 L385.40 433.53 L384.11 433.06 L384.59 432.68 L384.40 431.39 L382.83 430.97 L381.39 431.39 L381.14 430.63 L380.59 430.23 L378.50 430.06 L377.85 429.36 L377.19 429.83 L377.72 431.03 L376.30 431.80 L375.84 432.74 L374.92 432.62 L374.15 431.35 L374.45 430.09 L373.15 429.63 L373.40 429.05 L371.64 428.81 L371.42 428.34 L370.65 428.50 L369.91 426.94 L369.30 426.58 L368.39 426.60 L367.65 427.67 L366.63 427.11 L365.43 425.50 L364.75 426.13 L362.97 425.56 L360.95 425.50 L360.08 425.72 L359.35 425.39 L359.59 424.72 L360.36 424.05 L360.16 422.99 L359.50 422.42 L360.10 421.11 L358.81 419.15 L357.93 419.03 L356.65 420.01 L355.53 420.40 L354.13 420.17 L353.84 420.42 L349.68 420.37 L349.08 419.76 L349.25 419.21 L347.70 417.16 L347.44 416.11 L346.28 415.80 L345.48 416.39 L344.14 416.98 L343.65 418.38 L344.48 418.99 L343.84 420.22 L343.14 420.34 L341.56 419.58 L339.46 419.44 L337.68 419.61 L335.25 419.01 L334.52 418.48 L334.34 417.77 L335.31 417.23 L335.13 415.91 L334.49 415.36 L333.03 414.85 L331.40 414.75 L329.39 415.18 L328.75 414.96 L323.90 414.61 L324.20 412.90 L326.00 412.22 L327.84 410.78 L329.62 410.17 L330.14 409.11 L330.92 409.18 L331.72 408.09 L330.59 407.99 L330.18 407.55 L331.05 405.52 L331.73 405.32 L332.10 404.08 L333.69 403.72 L335.13 404.21 L335.48 404.60 L336.59 404.46 L336.12 403.42 L336.14 402.73 L336.66 401.28 L337.34 400.41 L337.45 399.53 L337.06 398.24 L337.82 397.65 L337.04 396.64 L338.68 395.87 L339.64 394.94 L340.14 394.14 L341.42 393.52 L342.57 392.21 L342.60 391.27 L343.43 391.37 L343.29 390.11 L341.74 388.45 L341.70 387.88 L340.74 387.34 L339.86 387.26 L339.13 386.17 L339.60 382.44 L339.08 382.20 L339.10 381.24 L338.15 381.32 L338.09 380.16 L337.43 379.46 L337.27 378.75 L337.41 377.33 L337.32 376.10 L338.23 376.51 L339.54 376.23 L340.88 376.29 L342.23 377.25 L342.19 378.32 L342.49 379.31 L342.54 380.44 L342.94 380.62 L344.61 379.14 L346.33 379.11 L347.88 378.10 L348.65 378.02 L350.40 377.06 L350.91 378.13 L351.81 378.34 L353.98 377.01 L353.81 377.78 L353.25 378.22 L353.63 379.85 L353.41 380.50 L354.05 380.95 L356.07 381.29 L356.66 380.54 L357.80 381.24 L359.22 381.72 L359.77 381.28 L360.74 381.83 L360.70 383.87 L362.38 384.03 L362.98 385.47 L364.39 385.63 L365.72 384.90 L366.07 384.12 L367.08 383.77 L366.48 383.18 L366.86 382.41 L367.93 382.41 L368.88 383.32 L368.63 384.04 L370.13 384.28 L370.26 383.52 L369.12 383.38 L369.27 382.34 L370.05 382.26 L370.22 380.42 L369.95 380.11 L370.05 378.52 L369.14 378.65 L368.64 378.11 L368.83 377.44 L367.88 377.05 L368.17 375.98 L365.62 375.93 L365.12 375.23 L364.21 375.77 L363.45 375.13 L363.17 374.38 L362.35 374.34 L362.61 373.35 L361.83 371.85 L362.74 371.54 L363.68 372.08 L364.37 371.29 L363.29 370.82 L363.11 370.01 L363.79 368.88 L364.96 368.88 L366.42 369.62 L367.74 370.03 L368.14 369.71 L368.57 368.44 L369.68 368.41 L368.49 366.94 L367.53 366.55 L368.19 364.77 L369.02 363.58 L368.95 361.72 L371.64 362.25 L372.53 361.20 L373.70 361.62 L373.98 360.70 L374.83 360.17 L374.87 359.51 L374.05 359.22 L374.89 357.73 L375.50 357.21 L376.84 357.33 L377.20 356.91 L377.90 357.10 L379.75 355.88 L379.68 355.44 L378.78 354.83 L379.72 354.20 L380.54 354.11 L381.35 353.32 L382.20 354.29 L383.96 353.05 L384.48 352.25 L385.84 352.59 L386.65 352.38 L388.38 352.66 L388.99 351.86 L389.98 351.72 L391.12 352.86 L391.71 352.51 L391.58 351.38 L391.83 350.89 L391.70 349.47 L391.84 348.67 L390.89 348.40 L390.87 347.39 L390.43 346.91 L390.66 346.02 L389.97 345.84 L388.42 346.17 L386.90 345.46 L387.41 343.07 L388.14 342.90 L387.71 341.11 L388.70 340.29 L389.94 341.12 L390.96 340.68 L391.97 341.30 L392.31 342.22 L392.03 342.85 L392.96 343.23 L394.39 343.19 L394.81 343.68 L395.91 343.49 L395.72 341.92 L396.70 341.11 L397.29 341.57 L398.13 341.31 L398.79 340.46 L400.03 340.53 L400.49 341.08 L400.41 341.45 L401.52 342.78 L401.41 343.66 L401.85 345.05 L403.55 345.05 L404.11 345.30 L404.36 346.13 L403.93 346.40 L404.75 347.32 L404.42 348.59 L404.35 350.28 L405.00 350.37 L406.11 351.58 L407.94 352.75 L409.55 352.99 L410.19 352.24 L411.43 352.95 L412.52 353.26 L412.89 354.48 L412.29 355.51 L413.09 356.72 L413.08 357.67 L413.70 358.71 L414.40 358.91 L414.76 360.38 L414.21 360.43 L413.06 359.92 L411.86 360.06 L410.95 360.88 L410.65 361.55 Z M348.93 410.42 L348.96 411.55 L348.42 412.94 L348.62 414.18 L349.68 414.15 L350.13 414.46 L350.72 417.25 L352.00 417.08 L352.85 417.25 L353.58 416.77 L354.57 415.72 L355.69 414.95 L355.57 413.59 L354.94 413.25 L353.11 414.68 L351.75 411.72 L350.52 411.64 L349.95 411.89 L349.52 410.88 L348.93 410.42 Z M394.26 434.09 L394.92 433.60 L395.39 432.80 L396.01 432.91 L395.38 434.06 L394.26 434.09 Z M393.06 435.09 L392.60 434.23 L393.81 434.17 L393.06 435.09 Z M388.18 433.90 L388.38 434.80 L387.05 435.50 L385.62 434.71 L386.07 434.41 L386.82 434.73 L388.18 433.90 Z M345.05 374.53 L345.49 374.12 L345.87 372.61 L347.30 371.98 L348.11 371.93 L348.89 372.72 L348.97 373.28 L350.03 373.80 L350.13 374.54 L349.33 374.62 L349.21 375.38 L347.79 377.54 L345.99 377.03 L344.94 377.25 L344.69 376.32 L345.13 375.73 L344.37 375.21 L345.05 374.53 Z"/>
<path class="france-region" data-name="Corse" d="M488.97 484.12 L489.10 485.68 L488.71 486.68 L489.16 488.09 L488.90 491.22 L488.02 491.82 L488.48 492.62 L487.95 493.63 L487.46 493.45 L486.88 494.27 L485.32 494.80 L485.57 495.90 L486.30 494.99 L487.07 495.44 L487.79 495.34 L487.02 496.93 L485.79 497.51 L485.20 498.58 L484.94 499.60 L485.25 500.24 L484.31 501.35 L483.28 501.90 L483.36 502.99 L484.12 503.35 L483.09 505.06 L481.88 505.11 L481.47 504.32 L480.89 504.34 L480.07 503.82 L479.08 503.77 L479.47 502.62 L479.24 501.85 L478.51 501.88 L477.40 500.79 L476.86 501.00 L475.91 500.07 L474.84 499.79 L473.65 499.74 L473.41 499.14 L472.45 499.24 L472.24 498.44 L471.43 498.03 L471.02 497.49 L470.41 497.50 L469.77 496.39 L468.98 495.54 L469.42 494.94 L469.55 493.93 L470.45 493.90 L471.37 493.21 L471.97 493.22 L472.33 492.28 L473.45 491.70 L473.41 491.36 L471.07 491.02 L470.16 490.31 L468.91 490.40 L469.24 489.41 L468.87 489.14 L467.25 489.88 L466.12 488.86 L466.98 488.31 L467.53 487.63 L466.86 486.66 L467.85 486.61 L468.83 486.16 L469.25 485.34 L469.44 483.79 L469.09 483.06 L469.83 482.77 L469.12 481.30 L467.84 481.46 L467.12 482.02 L465.64 482.15 L464.69 481.93 L463.80 482.30 L464.02 481.22 L463.30 480.07 L463.84 479.29 L464.84 479.43 L465.47 478.98 L465.17 477.66 L466.25 476.88 L466.63 476.92 L467.88 476.30 L467.81 475.37 L467.19 475.33 L466.89 473.94 L466.03 473.43 L465.23 473.49 L464.87 472.85 L464.13 472.77 L462.65 471.33 L463.06 471.01 L462.67 469.95 L462.78 469.20 L462.12 467.87 L463.87 467.13 L466.21 466.72 L466.25 466.09 L465.28 465.04 L464.57 465.07 L464.16 464.62 L464.27 463.48 L463.84 463.01 L463.06 462.89 L462.16 463.73 L461.83 463.10 L462.52 461.63 L463.65 461.42 L463.64 460.10 L464.12 459.92 L465.13 460.15 L465.76 457.53 L465.43 456.81 L465.46 455.91 L466.46 455.40 L466.89 455.48 L467.22 454.09 L468.36 453.44 L468.49 453.97 L469.34 453.99 L469.88 453.48 L470.04 452.21 L472.15 451.60 L472.35 450.90 L473.02 450.99 L473.52 450.57 L474.28 450.69 L476.47 450.42 L478.11 449.35 L477.85 448.70 L478.87 447.20 L480.11 446.46 L481.50 446.25 L482.46 446.75 L483.18 446.28 L485.50 448.95 L486.43 447.91 L486.43 447.10 L487.15 446.24 L486.91 445.01 L486.99 443.46 L486.08 442.19 L486.73 440.43 L486.42 439.15 L487.23 438.56 L487.59 437.17 L487.02 435.01 L487.60 434.48 L489.34 434.49 L490.93 435.36 L490.56 436.33 L491.01 437.35 L491.11 438.91 L491.53 440.68 L491.81 443.70 L491.20 444.77 L490.38 448.98 L491.29 451.09 L492.57 452.83 L492.97 453.64 L493.20 455.51 L493.04 456.96 L493.41 458.41 L493.48 459.60 L493.13 461.53 L493.30 463.26 L494.00 465.95 L493.77 467.94 L493.98 469.61 L493.90 471.95 L493.69 473.58 L493.06 474.36 L491.04 477.51 L490.23 478.50 L489.34 479.96 L489.41 481.15 L488.81 483.44 L488.97 484.12 Z"/></g>
</svg>
